<svg width="163" height="32" viewBox="0 0 163 32" fill="none" xmlns="http://www.w3.org/2000/svg">
<path d="M16.4818 19.6H21.8862V28.6C20.6852 29.4 19.2841 30.2 17.4827 30.6C15.8814 31 14.2801 31.4 12.6788 31.4C10.477 31.4 8.27523 31 6.47378 30C4.67232 29 3.27119 27.6 2.07022 26C1.06942 24.2 0.468933 22.4 0.468933 20.2C0.468933 18 1.06942 16 2.07022 14.4C3.07103 12.6 4.47216 11.4 6.47378 10.4C8.27523 9.4 10.477 9 12.6788 9C14.6804 9 16.4818 9.4 18.0831 10C19.6844 10.6 21.0856 11.6 22.0864 13L18.0831 16.6C17.0823 14.8 15.2809 14 13.2793 14C11.4778 14 9.87652 14.6 8.67555 15.6C7.47458 16.6 7.07426 18.2 7.07426 20.2C7.07426 21.4 7.27442 22.4 7.87491 23.4C8.47539 24.4 9.07587 25 10.0767 25.6C11.0775 26.2 12.0783 26.4 13.2793 26.4C14.4802 26.4 15.481 26.2 16.682 25.6V19.6H16.4818Z" fill="#2E3046"/>
<path d="M31.8943 30C30.0928 29 28.6917 27.6 27.4907 26C26.4899 24.2 25.8894 22.4 25.8894 20.2C25.8894 18 26.4899 16 27.4907 14.4C28.4915 12.6 29.8927 11.4 31.8943 10.4C33.6957 9.4 35.8975 9 38.0993 9C40.3011 9 42.5028 9.4 44.3043 10.4C46.1057 11.4 47.5069 12.8 48.7078 14.4C49.7086 16.2 50.3091 18 50.3091 20.2C50.3091 22.4 49.7086 24.4 48.7078 26C47.707 27.8 46.3059 29 44.3043 30C42.5028 31 40.3011 31.4 38.0993 31.4C35.8975 31.4 33.6957 31 31.8943 30ZM41.1017 25.6C41.9023 25 42.703 24.4 43.3035 23.4C43.904 22.4 44.1041 21.4 44.1041 20.2C44.1041 19 43.904 17.8 43.3035 17C42.703 16 42.1025 15.4 41.1017 14.8C40.3011 14.2 39.3002 14 38.0993 14C36.8983 14 36.0977 14.2 35.0969 14.8C34.2962 15.4 33.4956 16 32.8951 17C32.2946 18 32.0944 19 32.0944 20.2C32.0944 21.4 32.2946 22.6 32.8951 23.4C33.4956 24.4 34.096 25 35.0969 25.6C35.8975 26.2 36.8983 26.4 38.0993 26.4C39.3002 26.4 40.3011 26.2 41.1017 25.6Z" fill="#2E3046"/>
<path d="M75.9298 5C73.728 3.2 70.7256 2.2 66.9225 2.2H55.5133V31.2H60.5173V22.6H66.9225C70.7256 22.6 73.728 21.6 75.9298 19.8C78.1316 18 79.3325 15.4 79.3325 12.2C79.3325 9.00001 78.1316 6.8 75.9298 5ZM74.1283 12.4C74.1283 14.2 73.5278 15.6 72.3269 16.6C71.1259 17.6 69.3245 18.2 66.7224 18.2H60.3172V6.6H66.7224C69.1243 6.6 70.9257 7.20001 72.3269 8.20001C73.5278 9.20001 74.1283 10.6 74.1283 12.4Z" fill="#000000"/>
<path d="M99.5488 20.4C99.5488 22.6 98.9483 24.2 97.9475 25.2C96.9467 26.4 95.3454 26.8 93.544 26.8C91.9427 26.8 90.5416 26.4 89.7409 25.4C88.9403 24.4 88.3398 23 88.3398 21V8.8H83.5359V21.6C83.5359 24.8 84.3365 27.2 86.138 28.8C87.9394 30.4 90.1412 31.2 93.1436 31.2C94.7449 31.2 96.1461 30.8 97.5472 30.2C98.3478 29.8 99.1485 29.2 99.9491 28.6V31H104.553V9H99.749V20.4H99.5488Z" fill="#000000"/>
<path d="M115.161 0.400002H110.358V31.2H115.161V0.400002Z" fill="#000000"/>
<path d="M133.977 19.2C132.976 18.8 131.575 18.6 129.773 18.2C128.572 18 127.571 17.8 126.771 17.6C126.17 17.4 125.57 17.2 125.169 16.8C124.769 16.4 124.569 16 124.569 15.6C124.569 14.8 124.969 14.4 125.57 13.8C126.37 13.4 127.571 13 128.973 13C131.174 13 133.176 13.6 134.777 14.6L135.178 14.8L137.379 10.8L136.979 10.6C135.978 10 134.777 9.4 133.376 9.2C131.975 8.8 130.374 8.6 128.973 8.6C126.17 8.6 123.969 9.2 122.167 10.4C120.366 11.6 119.565 13.4 119.565 15.4C119.565 17 119.965 18.4 120.766 19.2C121.567 20 122.567 20.8 123.768 21.2C124.969 21.6 126.37 21.8 127.972 22.2C129.173 22.4 130.174 22.6 130.774 22.8C131.374 23 131.975 23.2 132.375 23.6C132.776 23.8 132.776 24.2 132.776 24.8C132.776 25.4 132.776 27.2 128.172 27.2C126.771 27.2 125.57 27 124.169 26.6C122.968 26.2 121.767 25.8 120.966 25L120.566 24.6L118.564 28.6L118.964 28.8C119.965 29.6 121.166 30.2 122.968 30.6C124.569 31 126.37 31.4 128.172 31.4C131.174 31.4 133.376 30.8 135.178 29.6C136.979 28.4 137.78 26.6 137.78 24.6C137.78 23 137.379 21.8 136.579 20.8C135.978 20.2 135.178 19.6 133.977 19.2Z" fill="#5E00CC"/>
<path d="M161.599 14.4C160.598 12.6 159.397 11.4 157.596 10.4C155.994 9.4 153.993 9 151.991 9C149.789 9 147.988 9.4 146.186 10.4C144.585 11.4 143.184 12.8 142.183 14.4C141.182 16.2 140.782 18 140.782 20.2C140.782 22.4 141.383 24.4 142.183 26C143.184 27.8 144.585 29.2 146.387 30C148.188 31 150.19 31.4 152.592 31.4C154.393 31.4 155.994 31 157.596 30.4C158.997 29.8 160.398 28.8 161.399 27.6L161.599 27.2L158.797 24L158.396 24.4C156.995 26 154.994 26.8 152.592 26.8C150.59 26.8 148.989 26.2 147.588 25.2C146.387 24.2 145.786 23 145.386 21.6H162.6V21.2C162.6 20.6 162.6 20.2 162.6 20C163 18 162.6 16 161.599 14.4ZM145.786 18.2C145.986 16.8 146.787 15.6 147.788 14.6C148.989 13.6 150.39 13 151.991 13C153.793 13 155.194 13.6 156.194 14.6C157.195 15.6 157.796 16.8 158.196 18.2H145.786Z" fill="#5E00CC"/>
</svg>
