<svg width="203" height="39" viewBox="0 0 203 39" fill="none" xmlns="http://www.w3.org/2000/svg">
<path d="M20.0161 24H26.7716V35.25C25.2704 36.25 23.519 37.25 21.2671 37.75C19.2655 38.25 17.2639 38.75 15.2623 38.75C12.5101 38.75 9.75787 38.25 7.50605 37C5.25424 35.75 3.50282 34 2.00161 32C0.750603 29.75 0 27.5 0 24.75C0 22 0.750603 19.5 2.00161 17.5C3.25262 15.25 5.00403 13.75 7.50605 12.5C9.75787 11.25 12.5101 10.75 15.2623 10.75C17.7643 10.75 20.0161 11.25 22.0178 12C24.0194 12.75 25.7708 14 27.0218 15.75L22.0178 20.25C20.7667 18 18.5149 17 16.0129 17C13.7611 17 11.7595 17.75 10.2583 19C8.75706 20.25 8.25666 22.25 8.25666 24.75C8.25666 26.25 8.50686 27.5 9.25747 28.75C10.0081 30 10.7587 30.75 12.0097 31.5C13.2607 32.25 14.5117 32.5 16.0129 32.5C17.5141 32.5 18.7651 32.25 20.2663 31.5V24H20.0161Z" fill="#2E3046"/>
<path d="M39.2817 37C37.0299 35.75 35.2785 34 33.7772 32C32.5262 29.75 31.7756 27.5 31.7756 24.75C31.7756 22 32.5262 19.5 33.7772 17.5C35.0283 15.25 36.7797 13.75 39.2817 12.5C41.5335 11.25 44.2857 10.75 47.0379 10.75C49.7902 10.75 52.5424 11.25 54.7942 12.5C57.046 13.75 58.7974 15.5 60.2986 17.5C61.5496 19.75 62.3002 22 62.3002 24.75C62.3002 27.5 61.5496 30 60.2986 32C59.0476 34.25 57.2962 35.75 54.7942 37C52.5424 38.25 49.7902 38.75 47.0379 38.75C44.2857 38.75 41.5335 38.25 39.2817 37ZM50.791 31.5C51.7918 30.75 52.7926 30 53.5432 28.75C54.2938 27.5 54.544 26.25 54.544 24.75C54.544 23.25 54.2938 21.75 53.5432 20.75C52.7926 19.5 52.042 18.75 50.791 18C49.7902 17.25 48.5391 17 47.0379 17C45.5367 17 44.5359 17.25 43.2849 18C42.2841 18.75 41.2833 19.5 40.5327 20.75C39.7821 22 39.5319 23.25 39.5319 24.75C39.5319 26.25 39.7821 27.75 40.5327 28.75C41.2833 30 42.0339 30.75 43.2849 31.5C44.2857 32.25 45.5367 32.5 47.0379 32.5C48.5391 32.5 49.7902 32.25 50.791 31.5Z" fill="#2E3046"/>
<path d="M94.3261 5.75C91.5739 3.5 87.8208 2.25 83.067 2.25H68.8055V38.5H75.0605V27.75H83.067C87.8208 27.75 91.5739 26.5 94.3261 24.25C97.0783 22 98.5795 18.75 98.5795 14.75C98.5795 10.75 97.0783 8 94.3261 5.75ZM92.0743 15C92.0743 17.25 91.3236 19 89.8224 20.25C88.3212 21.5 86.0694 22.25 82.8168 22.25H74.8103V7.75H82.8168C85.8192 7.75 88.071 8.5 89.8224 9.75C91.3236 11 92.0743 12.75 92.0743 15Z" fill="#000000"/>
<path d="M123.85 25C123.85 27.75 123.099 29.75 121.848 31C120.597 32.5 118.596 33 116.344 33C114.342 33 112.591 32.5 111.59 31.25C110.589 30 109.839 28.25 109.839 25.75V10.5H103.834V26.5C103.834 30.5 104.835 33.5 107.086 35.5C109.338 37.5 112.09 38.5 115.843 38.5C117.845 38.5 119.596 38 121.348 37.25C122.349 36.75 123.349 36 124.35 35.25V38.25H130.105V10.75H124.1V25H123.85Z" fill="#000000"/>
<path d="M143.366 0H137.361V38.5H143.366V0Z" fill="#000000"/>
<path d="M166.885 23.5C165.634 23 163.882 22.75 161.63 22.25C160.129 22 158.878 21.75 157.877 21.5C157.127 21.25 156.376 21 155.876 20.5C155.375 20 155.125 19.5 155.125 19C155.125 18 155.626 17.5 156.376 16.75C157.377 16.25 158.878 15.75 160.63 15.75C163.382 15.75 165.884 16.5 167.885 17.75L168.386 18L171.138 13L170.638 12.75C169.387 12 167.885 11.25 166.134 11C164.383 10.5 162.381 10.25 160.63 10.25C157.127 10.25 154.375 11 152.123 12.5C149.871 14 148.87 16.25 148.87 18.75C148.87 20.75 149.37 22.5 150.371 23.5C151.372 24.5 152.623 25.5 154.124 26C155.626 26.5 157.377 26.75 159.379 27.25C160.88 27.5 162.131 27.75 162.881 28C163.632 28.25 164.383 28.5 164.883 29C165.383 29.25 165.383 29.75 165.383 30.5C165.383 31.25 165.383 33.5 159.629 33.5C157.877 33.5 156.376 33.25 154.625 32.75C153.123 32.25 151.622 31.75 150.621 30.75L150.121 30.25L147.619 35.25L148.119 35.5C149.37 36.5 150.872 37.25 153.123 37.75C155.125 38.25 157.377 38.75 159.629 38.75C163.382 38.75 166.134 38 168.386 36.5C170.638 35 171.638 32.75 171.638 30.25C171.638 28.25 171.138 26.75 170.137 25.5C169.387 24.75 168.386 24 166.885 23.5Z" fill="#5E00CC"/>
<path d="M201.412 17.5C200.161 15.25 198.66 13.75 196.408 12.5C194.407 11.25 191.905 10.75 189.403 10.75C186.651 10.75 184.399 11.25 182.147 12.5C180.145 13.75 178.394 15.5 177.143 17.5C175.892 19.75 175.391 22 175.391 24.75C175.391 27.5 176.142 30 177.143 32C178.394 34.25 180.145 36 182.397 37C184.649 38.25 187.151 38.75 190.153 38.75C192.405 38.75 194.407 38.25 196.408 37.5C198.16 36.75 199.911 35.5 201.162 34L201.412 33.5L197.91 29.5L197.409 30C195.658 32 193.156 33 190.153 33C187.651 33 185.65 32.25 183.898 31C182.397 29.75 181.646 28.25 181.146 26.5H202.663V26C202.663 25.25 202.663 24.75 202.663 24.5C203.164 22 202.663 19.5 201.412 17.5ZM181.646 22.25C181.897 20.5 182.898 19 184.149 17.75C185.65 16.5 187.401 15.75 189.403 15.75C191.655 15.75 193.406 16.5 194.657 17.75C195.908 19 196.659 20.5 197.159 22.25H181.646Z" fill="#5E00CC"/>
</svg>
