<svg width="66" height="59" viewBox="0 0 66 59" fill="none"
  xmlns="http://www.w3.org/2000/svg">
  <path d="M56.3393 23.6001H62.3151C62.9127 23.6001 63.2114 23.8459 63.2114 24.3376V33.1876C63.2114 33.9251 62.6139 34.4168 61.7175 34.4168H56.3393C55.7417 34.4168 55.443 34.1709 55.443 33.6793V24.3376C55.443 23.8459 55.7417 23.6001 56.3393 23.6001Z" fill="url(#paint0_linear_176_16)"/>
  <path d="M43.5752 15.4875H48.6546C49.2522 15.4875 49.8498 15.9792 49.8498 16.4709V41.3C49.8498 42.0375 49.2522 42.5292 48.3558 42.5292H43.5752C42.9777 42.5292 42.3802 42.0375 42.3802 41.5459V16.7167C42.3802 15.9792 42.9777 15.4875 43.5752 15.4875Z" fill="url(#paint1_linear_176_16)"/>
  <path d="M30.8111 0H34.6954C35.8906 0 36.7869 0.737492 36.7869 1.72082V56.7875C36.7869 57.525 36.1894 58.0166 35.293 58.0166H31.1099C29.9148 58.0166 29.0185 57.2791 29.0185 56.2958V1.47499C28.7197 0.737496 29.6161 0 30.8111 0Z" fill="url(#paint2_linear_176_16)"/>
  <path d="M17.0929 12.2917H21.8734C22.7698 12.2917 23.3674 12.7834 23.3674 13.5209V44.4959C23.3674 45.2334 22.7698 45.7251 21.8734 45.7251H17.0929C16.1965 45.7251 15.5989 45.2334 15.5989 44.4959V13.2751C15.5989 12.7834 16.1965 12.2917 17.0929 12.2917Z" fill="url(#paint3_linear_176_16)"/>
  <path d="M3.13363 22.125H9.10934C9.70691 22.125 10.0057 22.3708 10.0057 22.8625V34.4167C10.0057 35.1542 9.40812 35.6458 8.51176 35.6458H3.13363C2.53606 35.6458 2.23727 35.4 2.23727 34.9083V22.8625C2.23727 22.6167 2.53606 22.125 3.13363 22.125Z" fill="url(#paint4_linear_176_16)"/>
  <defs>
    <linearGradient id="paint0_linear_176_16" x1="57.8545" y1="32.7964" x2="57.9015" y2="24.9779" gradientUnits="userSpaceOnUse">
      <stop stop-color="#D9AFFF"/>
      <stop offset="1" stop-color="white"/>
    </linearGradient>
    <linearGradient id="paint1_linear_176_16" x1="44.6989" y1="38.4781" x2="45.0045" y2="18.9363" gradientUnits="userSpaceOnUse">
      <stop stop-color="#D9AFFF"/>
      <stop offset="1" stop-color="white"/>
    </linearGradient>
    <linearGradient id="paint2_linear_176_16" x1="31.39" y1="49.3252" x2="32.7319" y2="7.43177" gradientUnits="userSpaceOnUse">
      <stop stop-color="#D9AFFF"/>
      <stop offset="1" stop-color="white"/>
    </linearGradient>
    <linearGradient id="paint3_linear_176_16" x1="18.0104" y1="40.7165" x2="18.4597" y2="16.558" gradientUnits="userSpaceOnUse">
      <stop stop-color="#D9AFFF"/>
      <stop offset="1" stop-color="white"/>
    </linearGradient>
    <linearGradient id="paint4_linear_176_16" x1="4.64876" y1="33.6203" x2="4.72226" y2="23.8475" gradientUnits="userSpaceOnUse">
      <stop stop-color="#D9AFFF"/>
      <stop offset="1" stop-color="white"/>
    </linearGradient>
  </defs>
</svg>
