<svg width="24" height="26" viewBox="0 0 24 26" fill="none" xmlns="http://www.w3.org/2000/svg">
<path d="M10.6583 25.7477L1.03984 20.228C0.389939 19.8384 0 19.189 0 18.4747V7.50027C0 6.78596 0.389939 6.13659 1.03984 5.74696L9.87845 0.74678L10.6583 0.292218C11.3082 -0.0974061 12.0881 -0.0974061 12.673 0.292218L22.3565 5.8119C23.0064 6.20152 23.3963 6.8509 23.3963 7.56521V18.5396C23.3963 19.2539 23.0064 19.9033 22.3565 20.2929L12.673 25.8126C12.0881 26.0724 11.3082 26.0724 10.6583 25.7477Z" fill="white"/>
<path d="M17.8073 14.4486H19.1071C19.2371 14.4486 19.302 14.3836 19.302 14.2537V11.916C19.302 11.7212 19.1721 11.5913 18.9771 11.5913H17.8073C17.6773 11.5913 17.6123 11.6562 17.6123 11.7861V14.2537C17.6123 14.3836 17.6773 14.4486 17.8073 14.4486Z" fill="url(#paint0_linear_2915_7789)"/>
<path d="M14.4934 16.5916H15.5982C15.7282 16.5916 15.8581 16.4617 15.8581 16.3319V9.77317C15.8581 9.57836 15.7282 9.44849 15.5332 9.44849H14.4934C14.3634 9.44849 14.2334 9.57836 14.2334 9.70824V16.2669C14.2334 16.4617 14.3634 16.5916 14.4934 16.5916Z" fill="url(#paint1_linear_2915_7789)"/>
<path d="M11.3088 20.6827H12.1537C12.4136 20.6827 12.6086 20.4878 12.6086 20.2281V5.68211C12.6086 5.4873 12.4786 5.35742 12.2836 5.35742H11.3738C11.1138 5.35742 10.9188 5.55223 10.9188 5.81198V20.293C10.8539 20.4878 11.0488 20.6827 11.3088 20.6827Z" fill="url(#paint2_linear_2915_7789)"/>
<path d="M7.79956 17.4357H8.8394C9.03437 17.4357 9.16435 17.3059 9.16435 17.1111V8.92894C9.16435 8.73412 9.03437 8.60425 8.8394 8.60425H7.79956C7.60459 8.60425 7.47461 8.73412 7.47461 8.92894V17.176C7.47461 17.3059 7.60459 17.4357 7.79956 17.4357Z" fill="url(#paint3_linear_2915_7789)"/>
<path d="M4.2897 14.8382H5.58949C5.71947 14.8382 5.78446 14.7732 5.78446 14.6433V11.5913C5.78446 11.3965 5.65448 11.2666 5.45951 11.2666H4.2897C4.15972 11.2666 4.09473 11.3315 4.09473 11.4614V14.6433C4.09473 14.7083 4.15972 14.8382 4.2897 14.8382Z" fill="url(#paint4_linear_2915_7789)"/>
<defs>
<linearGradient id="paint0_linear_2915_7789" x1="18.1368" y1="12.0194" x2="18.1519" y2="14.0846" gradientUnits="userSpaceOnUse">
<stop stop-color="#000000"/>
<stop offset="1" stop-color="#B16FFF"/>
</linearGradient>
<linearGradient id="paint1_linear_2915_7789" x1="14.7378" y1="10.5186" x2="14.8358" y2="15.68" gradientUnits="userSpaceOnUse">
<stop stop-color="#000000"/>
<stop offset="1" stop-color="#B16FFF"/>
</linearGradient>
<linearGradient id="paint2_linear_2915_7789" x1="11.4347" y1="7.65329" x2="11.865" y2="18.7142" gradientUnits="userSpaceOnUse">
<stop stop-color="#000000"/>
<stop offset="1" stop-color="#B16FFF"/>
</linearGradient>
<linearGradient id="paint3_linear_2915_7789" x1="7.99914" y1="9.92729" x2="8.14324" y2="16.3077" gradientUnits="userSpaceOnUse">
<stop stop-color="#000000"/>
<stop offset="1" stop-color="#B16FFF"/>
</linearGradient>
<linearGradient id="paint4_linear_2915_7789" x1="4.61926" y1="11.8017" x2="4.64283" y2="14.3831" gradientUnits="userSpaceOnUse">
<stop stop-color="#000000"/>
<stop offset="1" stop-color="#B16FFF"/>
</linearGradient>
</defs>
</svg>
