<svg width="64" height="64" viewBox="0 0 64 64" fill="none" xmlns="http://www.w3.org/2000/svg">
<path d="M29.2359 63.3789L5.5596 49.792C3.95985 48.8329 3 47.2345 3 45.4762V18.4622C3 16.7039 3.95985 15.1054 5.5596 14.1464L27.3162 1.83823L29.2359 0.719307C30.8356 -0.239769 32.7553 -0.239769 34.1951 0.719307L58.0314 14.3062C59.6311 15.2653 60.591 16.8638 60.591 18.6221V45.636C60.591 47.3943 59.6311 48.9928 58.0314 49.9519L34.1951 63.5388C32.7553 64.1782 30.8356 64.1782 29.2359 63.3789Z" fill="#000000"/>
<path d="M46.8325 35.5657H50.032C50.3519 35.5657 50.5119 35.4058 50.5119 35.0862V29.3317C50.5119 28.8522 50.1919 28.5325 49.712 28.5325H46.8325C46.5125 28.5325 46.3525 28.6923 46.3525 29.012V35.0862C46.3525 35.4058 46.5125 35.5657 46.8325 35.5657Z" fill="url(#paint0_linear_1838_8761)"/>
<path d="M38.6741 40.8406H41.3937C41.7136 40.8406 42.0336 40.5209 42.0336 40.2012V24.0568C42.0336 23.5773 41.7136 23.2576 41.2337 23.2576H38.6741C38.3541 23.2576 38.0342 23.5773 38.0342 23.897V40.0414C38.0342 40.5209 38.3541 40.8406 38.6741 40.8406Z" fill="url(#paint1_linear_1838_8761)"/>
<path d="M30.8356 50.9108H32.9153C33.5552 50.9108 34.0351 50.4312 34.0351 49.7919V13.9864C34.0351 13.5068 33.7151 13.1871 33.2352 13.1871H30.9956C30.3557 13.1871 29.8757 13.6667 29.8757 14.3061V49.9517C29.7158 50.4312 30.1957 50.9108 30.8356 50.9108Z" fill="url(#paint2_linear_1838_8761)"/>
<path d="M22.1964 42.9185H24.756C25.2359 42.9185 25.5558 42.5988 25.5558 42.1193V21.9787C25.5558 21.4991 25.2359 21.1794 24.756 21.1794H22.1964C21.7164 21.1794 21.3965 21.4991 21.3965 21.9787V42.2791C21.3965 42.5988 21.7164 42.9185 22.1964 42.9185Z" fill="url(#paint3_linear_1838_8761)"/>
<path d="M13.558 36.5247H16.7575C17.0775 36.5247 17.2375 36.3648 17.2375 36.0451V28.5324C17.2375 28.0528 16.9175 27.7332 16.4376 27.7332H13.558C13.2381 27.7332 13.0781 27.893 13.0781 28.2127V36.0451C13.0781 36.205 13.2381 36.5247 13.558 36.5247Z" fill="url(#paint4_linear_1838_8761)"/>
<defs>
<linearGradient id="paint0_linear_1838_8761" x1="47.6437" y1="29.5861" x2="47.6808" y2="34.6697" gradientUnits="userSpaceOnUse">
<stop stop-color="#D9AFFF"/>
<stop offset="1" stop-color="white"/>
</linearGradient>
<linearGradient id="paint1_linear_1838_8761" x1="39.2757" y1="25.8917" x2="39.517" y2="38.5967" gradientUnits="userSpaceOnUse">
<stop stop-color="#D9AFFF"/>
<stop offset="1" stop-color="white"/>
</linearGradient>
<linearGradient id="paint2_linear_1838_8761" x1="31.1455" y1="18.8385" x2="32.2046" y2="46.0652" gradientUnits="userSpaceOnUse">
<stop stop-color="#D9AFFF"/>
<stop offset="1" stop-color="white"/>
</linearGradient>
<linearGradient id="paint3_linear_1838_8761" x1="22.6876" y1="24.4362" x2="23.0423" y2="40.1419" gradientUnits="userSpaceOnUse">
<stop stop-color="#D9AFFF"/>
<stop offset="1" stop-color="white"/>
</linearGradient>
<linearGradient id="paint4_linear_1838_8761" x1="14.3693" y1="29.0502" x2="14.4273" y2="35.4045" gradientUnits="userSpaceOnUse">
<stop stop-color="#D9AFFF"/>
<stop offset="1" stop-color="white"/>
</linearGradient>
</defs>
</svg>
