<svg width="66" height="59" viewBox="0 0 66 59" fill="none" xmlns="http://www.w3.org/2000/svg">
    <path
        d="M56.3393 34.4168H62.3151C62.9127 34.4168 63.2114 34.1709 63.2114 33.6793V24.8293C63.2114 24.0918 62.6139 23.6001 61.7175 23.6001H56.3393C55.7418 23.6001 55.443 23.8459 55.443 24.3376V33.6793C55.443 34.1709 55.7418 34.4168 56.3393 34.4168Z"
        fill="#D60040" />
    <path
        d="M43.5752 42.5292H48.6546C49.2522 42.5292 49.8498 42.0375 49.8498 41.5459V16.7167C49.8498 15.9792 49.2522 15.4875 48.3558 15.4875H43.5752C42.9777 15.4875 42.3802 15.9792 42.3802 16.4709V41.3C42.3802 42.0375 42.9777 42.5292 43.5752 42.5292Z"
        fill="#FFFFFF" />
    <path
        d="M30.8111 58.0167H34.6954C35.8906 58.0167 36.7869 57.2792 36.7869 56.2958V1.22917C36.7869 0.491667 36.1894 0 35.293 0H31.1099C29.9148 0 29.0185 0.7375 29.0185 1.72083V56.5417C28.7197 57.2792 29.6161 58.0167 30.8111 58.0167Z"
        fill="#FFFFFF" />
    <path
        d="M17.0929 45.7251H21.8734C22.7698 45.7251 23.3674 45.2334 23.3674 44.4959V13.5209C23.3674 12.7834 22.7698 12.2917 21.8734 12.2917H17.0929C16.1965 12.2917 15.5989 12.7834 15.5989 13.5209V44.7417C15.5989 45.2334 16.1965 45.7251 17.0929 45.7251Z"
        fill="#FFFFFF" />
    <path
        d="M3.13366 35.8917H9.10937C9.70694 35.8917 10.0057 35.6458 10.0057 35.1542V23.6C10.0057 22.8625 9.40815 22.3708 8.51179 22.3708H3.13366C2.53609 22.3708 2.2373 22.6167 2.2373 23.1083V35.1542C2.2373 35.4 2.53609 35.8917 3.13366 35.8917Z"
        fill="#FFFFFF" />
</svg>