<svg width="59" height="64" viewBox="0 0 59 64" fill="none" xmlns="http://www.w3.org/2000/svg">
<path d="M27.354 62.4623L5.26981 49.789C3.77763 48.8944 2.88232 47.4035 2.88232 45.7634V20.566C2.88232 18.9259 3.77763 17.4349 5.26981 16.5403L25.5634 5.05983L27.354 4.01615C28.8462 3.12157 30.6368 3.12157 31.9797 4.01615L54.2132 16.6894C55.7053 17.584 56.6007 19.075 56.6007 20.715V45.9125C56.6007 47.5526 55.7053 49.0435 54.2132 49.9381L31.9797 62.6114C30.6368 63.2078 28.8462 63.2078 27.354 62.4623Z" fill="#000000"/>
<path d="M23.9273 2.67154L23.9273 2.67157L23.9329 2.66833L25.7235 1.62464L25.7235 1.62468L25.7288 1.6215C27.0717 0.81638 28.6533 0.831463 29.8202 1.60879L29.8347 1.61844L29.8498 1.62705L52.0784 14.2975C53.4314 15.1106 54.2183 16.4449 54.2183 17.8916V43.089C54.2183 44.5356 53.4314 45.8699 52.0784 46.683L29.8722 59.3407C28.672 59.865 27.0558 59.8663 25.7077 59.1978L3.64055 46.5343C2.28719 45.7212 1.5 44.3867 1.5 42.9399V17.7425C1.5 16.2961 2.2867 14.962 3.6393 14.1488L23.9273 2.67154Z" fill="white" stroke="#000000"/>
<path d="M41.8856 33.6958H44.87C45.1684 33.6958 45.3176 33.5467 45.3176 33.2485V27.881C45.3176 27.4337 45.0192 27.1355 44.5716 27.1355H41.8856C41.5872 27.1355 41.438 27.2846 41.438 27.5828V33.2485C41.438 33.5467 41.5872 33.6958 41.8856 33.6958Z" fill="#000000"/>
<path d="M34.5969 38.616H37.1336C37.432 38.616 37.7304 38.3178 37.7304 38.0196V22.9608C37.7304 22.5135 37.432 22.2153 36.9844 22.2153H34.5969C34.2984 22.2153 34 22.5135 34 22.8117V37.8705C34 38.3178 34.2984 38.616 34.5969 38.616Z" fill="#000000"/>
<path d="M26.9639 48.0092H28.9037C29.5006 48.0092 29.9483 47.5619 29.9483 46.9655V13.5678C29.9483 13.1205 29.6498 12.8223 29.2022 12.8223H27.1131C26.5162 12.8223 26.0686 13.2696 26.0686 13.8659V47.1146C25.9194 47.5619 26.367 48.0092 26.9639 48.0092Z" fill="#000000"/>
<path d="M18.9061 40.5543H21.2936C21.7413 40.5543 22.0397 40.2561 22.0397 39.8088V21.0226C22.0397 20.5753 21.7413 20.2771 21.2936 20.2771H18.9061C18.4585 20.2771 18.16 20.5753 18.16 21.0226V39.9579C18.16 40.2561 18.4585 40.5543 18.9061 40.5543Z" fill="#000000"/>
<path d="M10.8484 34.5905H13.8328C14.1312 34.5905 14.2804 34.4414 14.2804 34.1432V27.1356C14.2804 26.6883 13.982 26.3901 13.5343 26.3901H10.8484C10.55 26.3901 10.4008 26.5392 10.4008 26.8374V34.1432C10.4008 34.2923 10.55 34.5905 10.8484 34.5905Z" fill="#000000"/>
</svg>
