<svg width="16" height="16" viewBox="0 0 16 16" fill="none" xmlns="http://www.w3.org/2000/svg">
<path d="M7.97892 14.4166C5.95535 14.4166 3.93177 14.4166 1.89932 14.4166C1.26917 14.4166 0.745528 14.1858 0.355013 13.6888C0.0887533 13.3427 0 12.9344 0 12.4995C0 9.64166 0 6.77493 0 3.91707C0.00887533 2.97629 0.514769 2.29289 1.35793 2.071C1.53543 2.02663 1.72181 2 1.9082 2C5.96422 2 10.038 2 14.1029 2C15.2123 2 15.9933 2.78103 15.9933 3.9082C16.0022 6.77493 16.0022 9.64166 15.9933 12.5084C15.9933 13.6533 15.2123 14.4166 14.0585 14.4166C12.0349 14.4166 10.0114 14.4166 7.97892 14.4166ZM6.66537 9.18014C6.66537 8.94051 6.67425 8.70975 6.66537 8.47012C6.64762 8.02635 6.39911 7.77784 5.95535 7.76896C5.70684 7.76009 5.44945 7.76009 5.20094 7.76896C4.75718 7.77784 4.47317 8.03522 4.46429 8.42574C4.46429 8.80738 4.73055 9.07364 5.16544 9.09139C5.31632 9.09139 5.35182 9.13576 5.35182 9.27777C5.35182 9.4109 5.3252 9.47303 5.18319 9.50853C5.01456 9.54403 4.84593 9.54403 4.6773 9.50853C3.93177 9.3754 3.4525 8.692 3.60338 7.94647C3.74539 7.22757 4.49092 6.7483 5.20982 6.92581C5.3607 6.96131 5.5027 7.03231 5.65358 7.06781C5.96422 7.15657 6.25711 7.01456 6.39024 6.73943C6.53224 6.43766 6.47011 6.11815 6.19498 5.93177C5.71571 5.60338 5.18319 5.53238 4.61517 5.57676C3.17737 5.70101 2.0147 7.03231 2.27208 8.64762C2.56497 10.5203 4.68617 11.4611 6.30148 10.4582C6.53224 10.3162 6.66537 10.1209 6.66537 9.84579C6.6565 9.62391 6.66537 9.40202 6.66537 9.18014ZM9.78061 8.21273C9.78061 8.85175 9.78061 9.4819 9.78061 10.1209C9.78061 10.5824 10.0469 10.8753 10.4463 10.8753C10.8368 10.8753 11.0942 10.5736 11.103 10.1121C11.103 9.84579 11.1119 9.57953 11.103 9.31327C11.0942 9.13576 11.1563 9.09139 11.3249 9.10026C11.6089 9.11801 11.9018 9.10914 12.1858 9.10026C12.5941 9.08251 12.8692 8.81625 12.8781 8.44349C12.8781 8.07072 12.603 7.79559 12.1947 7.77784C12.0616 7.76896 11.9284 7.77784 11.7953 7.77784C11.5734 7.76896 11.2717 7.87547 11.1385 7.73346C11.0232 7.60921 11.1208 7.30745 11.0942 7.09444C11.0764 6.91693 11.1474 6.89031 11.3072 6.89031C11.8042 6.89918 12.3012 6.89918 12.7893 6.89031C13.0556 6.89031 13.2864 6.8193 13.4284 6.57079C13.7124 6.1004 13.384 5.56788 12.816 5.55901C12.0704 5.55013 11.3249 5.55901 10.5794 5.55901C10.0291 5.55901 9.78061 5.80752 9.78061 6.35779C9.78061 6.97018 9.78061 7.59146 9.78061 8.21273ZM8.8842 8.22161C8.8842 7.72459 8.8842 7.22757 8.8842 6.73943C8.8842 6.54417 8.89308 6.34004 8.86645 6.14478C8.80433 5.63889 8.25406 5.39038 7.83692 5.68326C7.61503 5.83414 7.56178 6.07378 7.56178 6.33116C7.56178 7.58258 7.56178 8.84288 7.56178 10.0943C7.56178 10.1831 7.57066 10.2718 7.58841 10.3606C7.65941 10.7156 8.0233 10.9375 8.37831 10.8398C8.71557 10.7511 8.87533 10.5292 8.87533 10.1298C8.8842 9.49078 8.8842 8.86063 8.8842 8.22161Z" fill="#8386A5"/>
</svg>
