<svg width="16" height="16" viewBox="0 0 16 16" fill="none" xmlns="http://www.w3.org/2000/svg">
<path d="M14.5 14H1.5C1.08333 14 0.729167 13.8542 0.4375 13.5625C0.145833 13.2708 0 12.9167 0 12.5V3.5C0 3.08333 0.145833 2.72917 0.4375 2.4375C0.729167 2.14583 1.08333 2 1.5 2H14.5C14.9167 2 15.2708 2.14583 15.5625 2.4375C15.8542 2.72917 16 3.08333 16 3.5V12.5C16 12.9167 15.8542 13.2708 15.5625 13.5625C15.2708 13.8542 14.9167 14 14.5 14ZM4.71875 4.28125C4.38542 3.92708 3.97917 3.75 3.5 3.75C3.02083 3.75 2.60417 3.92708 2.25 4.28125C1.91667 4.61458 1.75 5.02083 1.75 5.5C1.75 5.97917 1.91667 6.39583 2.25 6.75C2.60417 7.08333 3.02083 7.25 3.5 7.25C3.97917 7.25 4.38542 7.08333 4.71875 6.75C5.07292 6.39583 5.25 5.97917 5.25 5.5C5.25 5.02083 5.07292 4.61458 4.71875 4.28125ZM2 12H14V8.5L11.25 5.75C11.0833 5.58333 10.9167 5.58333 10.75 5.75L6.5 10L4.75 8.25C4.58333 8.08333 4.41667 8.08333 4.25 8.25L2 10.5V12Z" fill="#8386A5"/>
</svg>
