<svg width="14" height="15" viewBox="0 0 14 15" fill="none" xmlns="http://www.w3.org/2000/svg">
<path d="M2.1875 2.96484C3.51823 1.63411 5.1224 0.96875 7 0.96875C8.8776 0.96875 10.4727 1.63411 11.7852 2.96484C13.1159 4.27734 13.7812 5.8724 13.7812 7.75C13.7812 9.6276 13.1159 11.2318 11.7852 12.5625C10.4727 13.875 8.8776 14.5312 7 14.5312C5.1224 14.5312 3.51823 13.875 2.1875 12.5625C0.875 11.2318 0.21875 9.6276 0.21875 7.75C0.21875 5.8724 0.875 4.27734 2.1875 2.96484ZM9.78906 5.83594C9.625 5.65365 9.42448 5.5625 9.1875 5.5625C8.95052 5.5625 8.74089 5.65365 8.55859 5.83594C8.39453 6 8.3125 6.20052 8.3125 6.4375C8.3125 6.67448 8.39453 6.88411 8.55859 7.06641C8.74089 7.23047 8.95052 7.3125 9.1875 7.3125C9.42448 7.3125 9.625 7.23047 9.78906 7.06641C9.97135 6.88411 10.0625 6.67448 10.0625 6.4375C10.0625 6.20052 9.97135 6 9.78906 5.83594ZM5.41406 5.83594C5.25 5.65365 5.04948 5.5625 4.8125 5.5625C4.57552 5.5625 4.36589 5.65365 4.18359 5.83594C4.01953 6 3.9375 6.20052 3.9375 6.4375C3.9375 6.67448 4.01953 6.88411 4.18359 7.06641C4.36589 7.23047 4.57552 7.3125 4.8125 7.3125C5.04948 7.3125 5.25 7.23047 5.41406 7.06641C5.59635 6.88411 5.6875 6.67448 5.6875 6.4375C5.6875 6.20052 5.59635 6 5.41406 5.83594ZM10.1445 10.2109C10.2174 10.138 10.2539 10.056 10.2539 9.96484C10.2539 9.85547 10.2266 9.77344 10.1719 9.71875C10.1172 9.64583 10.0443 9.59115 9.95312 9.55469C9.88021 9.5 9.79818 9.48177 9.70703 9.5C9.61589 9.51823 9.53385 9.57292 9.46094 9.66406C8.82292 10.4297 8.0026 10.8125 7 10.8125C5.9974 10.8125 5.17708 10.4297 4.53906 9.66406C4.46615 9.57292 4.38411 9.51823 4.29297 9.5C4.20182 9.48177 4.11068 9.5 4.01953 9.55469C3.94661 9.59115 3.88281 9.64583 3.82812 9.71875C3.77344 9.77344 3.74609 9.85547 3.74609 9.96484C3.74609 10.056 3.78255 10.138 3.85547 10.2109C4.67578 11.1953 5.72396 11.6875 7 11.6875C8.27604 11.6875 9.32422 11.1953 10.1445 10.2109Z" fill="#8386A5"/>
</svg>
