<svg xmlns="http://www.w3.org/2000/svg" version="1.1" xmlns:xlink="http://www.w3.org/1999/xlink" width="128" height="142"><svg width="128" height="142" viewBox="0 0 128 142" fill="none" xmlns="http://www.w3.org/2000/svg">
<path d="M58.3113 139.772L5.68891 109.813C2.13334 107.695 0 104.167 0 100.285V40.7211C0 36.8395 2.13334 33.3109 5.68891 31.1936L54.0446 4.058L58.3113 1.58791C61.8669 -0.529305 66.1335 -0.529305 69.3335 1.58791L122.312 31.5465C125.867 33.6637 128 37.1924 128 41.074V100.638C128 104.52 125.867 108.048 122.312 110.166L69.3335 140.124C66.1335 141.536 61.8669 141.536 58.3113 139.772Z" fill="#131420"></path>
<path d="M29.7695 58.2205H23.3695C22.3877 58.2205 21.5918 59.0104 21.5918 59.9848V81.157C21.5918 82.1314 22.3877 82.9213 23.3695 82.9213H29.7695C30.7514 82.9213 31.5473 82.1314 31.5473 81.157V59.9848C31.5473 59.0104 30.7514 58.2205 29.7695 58.2205Z" fill="white"></path>
<path d="M48.484 45.8696H42.084C41.1022 45.8696 40.3062 46.6596 40.3062 47.634V93.507C40.3062 94.4817 41.1022 95.2713 42.084 95.2713H48.484C49.4659 95.2713 50.2618 94.4817 50.2618 93.507V47.634C50.2618 46.6596 49.4659 45.8696 48.484 45.8696Z" fill="white"></path>
<path d="M85.9146 49.2732H79.5146C78.5328 49.2732 77.7368 50.0631 77.7368 51.0376V90.1089C77.7368 91.0828 78.5328 91.8732 79.5146 91.8732H85.9146C86.8965 91.8732 87.6925 91.0828 87.6925 90.1089V51.0376C87.6925 50.0631 86.8965 49.2732 85.9146 49.2732Z" fill="white"></path>
<path d="M67.2916 28.2742H60.8916C59.9097 28.2742 59.1138 29.0641 59.1138 30.0385V109.967C59.1138 110.942 59.9097 111.732 60.8916 111.732H67.2916C68.2734 111.732 69.0693 110.942 69.0693 109.967V30.0385C69.0693 29.0641 68.2734 28.2742 67.2916 28.2742Z" fill="white"></path>
<path d="M104.631 59.8564H98.2304C97.2489 59.8564 96.4531 60.6463 96.4531 61.6208V79.5195C96.4531 80.4939 97.2489 81.2839 98.2304 81.2839H104.631C105.612 81.2839 106.408 80.4939 106.408 79.5195V61.6208C106.408 60.6463 105.612 59.8564 104.631 59.8564Z" fill="#D60040"></path>
</svg><style>@media (prefers-color-scheme: light) { :root { filter: none; } }
@media (prefers-color-scheme: dark) { :root { filter: none; } }
</style></svg>