<svg width="142" height="64" viewBox="0 0 142 64" fill="none" xmlns="http://www.w3.org/2000/svg">
<path d="M115.896 58.4604V50.6756L103.171 51.7236L95.7603 47.9809V36.678L118.965 1.19727L128.397 0.44873L135.882 4.19142V33.5341L141.571 36.3786V48.43L135.882 48.954V61.0803L123.381 62.1283L115.896 58.4604ZM133.337 44.0136V33.4593L127.648 33.9832V1.27213L119.264 1.94581L96.4339 36.9025V47.2324L116.644 45.4359V57.637L127.648 56.7388V44.5376L133.337 44.0136ZM116.644 20.6593V34.8815L106.913 35.7797L116.644 20.6593Z" fill="#000000"/>
<path d="M74.3782 63.9252C74.0788 63.9751 73.7793 64 73.4799 64C73.1805 64 72.8811 64 72.5817 64C70.386 64 68.4148 63.7006 66.6682 63.1018C64.9716 62.5029 63.3248 61.8542 61.7279 61.1556C58.2347 59.5587 55.4901 57.4628 53.494 54.8678C51.5478 52.2729 50.1505 49.0791 49.3022 45.2865C48.5037 41.4441 48.1045 36.9029 48.1045 31.6632C48.1045 28.0203 48.4039 24.4023 49.0027 20.8094C49.6515 17.2164 50.6745 13.9228 52.0717 10.9287C53.5189 7.8846 55.4402 5.38947 57.8355 3.44327C60.2308 1.49707 63.2 0.374267 66.7431 0.0748528C66.9926 0.0249509 67.2421 0 67.4916 0C67.791 0 68.0655 0 68.315 0C69.9618 0 71.6086 0.249512 73.2554 0.748537C74.9521 1.19766 76.8234 1.84639 78.8694 2.69474C82.3626 4.09201 85.1322 6.26277 87.1782 9.20702C89.2242 12.1513 90.6963 15.5945 91.5946 19.5368C92.4928 23.4791 92.9419 27.7209 92.9419 32.262C92.9419 36.2043 92.6425 40.0218 92.0437 43.7146C91.4449 47.3575 90.4218 50.6511 88.9747 53.5953C87.5774 56.5396 85.6811 58.9099 83.2858 60.7064C80.8905 62.5528 77.9213 63.6257 74.3782 63.9252ZM66.8179 59.4339C70.2612 59.1345 73.1306 58.0866 75.4261 56.2901C77.7715 54.4936 79.618 52.1731 80.9653 49.3287C82.3127 46.4343 83.2608 43.2156 83.8098 39.6725C84.4086 36.0795 84.708 32.3618 84.708 28.5193C84.708 25.0261 84.4335 21.6327 83.8846 18.3392C83.3856 15.0456 82.5123 12.0764 81.2647 9.43158C80.0172 6.78674 78.3454 4.69084 76.2495 3.14386C74.1536 1.54698 71.5337 0.748537 68.3899 0.748537C68.1404 0.748537 67.8659 0.748537 67.5665 0.748537C67.317 0.748537 67.0675 0.773488 66.8179 0.82339C63.3248 1.12281 60.4055 2.22066 58.0601 4.11696C55.7645 6.01326 53.9431 8.43353 52.5957 11.3778C51.2483 14.322 50.2752 17.5657 49.6764 21.1088C49.1275 24.6019 48.853 28.1201 48.853 31.6632C48.853 35.5556 49.1025 39.1984 49.6016 42.5918C50.1505 45.9353 51.0238 48.8795 52.2215 51.4246C53.469 53.9696 55.1158 55.9657 57.1618 57.4129C59.2577 58.8101 61.8776 59.5088 65.0215 59.5088C65.3209 59.5088 65.6203 59.5088 65.9197 59.5088C66.2191 59.5088 66.5185 59.4838 66.8179 59.4339ZM66.2191 48.5053C63.9236 48.5053 62.4265 47.083 61.7279 44.2386C61.0292 41.3442 60.6799 36.8031 60.6799 30.6152C60.6799 24.5271 61.0542 19.9361 61.8027 16.8421C62.5513 13.7481 64.223 12.1014 66.8179 11.9018H67.3419C69.6873 11.9018 71.1844 13.3988 71.8331 16.393C72.4819 19.3871 72.8062 23.7786 72.8062 29.5672C72.8062 36.0546 72.407 40.7704 71.6086 43.7146C70.8601 46.6589 69.2632 48.2557 66.8179 48.5053H66.2191ZM69.5127 46.4842C70.6105 45.3365 71.3092 43.3903 71.6086 40.6456C71.908 37.901 72.0577 34.2082 72.0577 29.5672C72.0577 27.0222 72.0328 24.7517 71.9829 22.7556C71.933 20.7096 71.7832 19.0129 71.5337 17.6655C70.3361 18.8632 69.5875 20.8593 69.2881 23.6538C69.0386 26.3984 68.9139 29.9665 68.9139 34.3579C68.9139 37.0027 68.9388 39.3481 68.9887 41.3942C69.0885 43.4402 69.2632 45.1368 69.5127 46.4842Z" fill="#5E00CC"/>
<path d="M20.1357 58.4604V50.6756L7.41052 51.7236L0 47.9809V36.678L23.2047 1.19727L32.6363 0.44873L40.1216 4.19142V33.5341L45.8105 36.3786V48.43L40.1216 48.954V61.0803L27.621 62.1283L20.1357 58.4604ZM37.5766 44.0136V33.4593L31.8877 33.9832V1.27213L23.5041 1.94581L0.673689 36.9025V47.2324L20.8842 45.4359V57.637L31.8877 56.7388V44.5376L37.5766 44.0136ZM20.8842 20.6593V34.8815L11.1532 35.7797L20.8842 20.6593Z" fill="#5E00CC"/>
</svg>
