<svg width="24" height="24" viewBox="0 0 24 24" fill="none"
  xmlns="http://www.w3.org/2000/svg">
  <path d="M9 3.75C9 2.50781 10.0078 1.5 11.25 1.5H12.75C13.9922 1.5 15 2.50781 15 3.75V20.25C15 21.4922 13.9922 22.5 12.75 22.5H11.25C10.0078 22.5 9 21.4922 9 20.25V3.75ZM1.5 12.75C1.5 11.5078 2.50781 10.5 3.75 10.5H5.25C6.49219 10.5 7.5 11.5078 7.5 12.75V20.25C7.5 21.4922 6.49219 22.5 5.25 22.5H3.75C2.50781 22.5 1.5 21.4922 1.5 20.25V12.75ZM18.75 4.5H20.25C21.4922 4.5 22.5 5.50781 22.5 6.75V20.25C22.5 21.4922 21.4922 22.5 20.25 22.5H18.75C17.5078 22.5 16.5 21.4922 16.5 20.25V6.75C16.5 5.50781 17.5078 4.5 18.75 4.5Z" fill="#8386A5"/>
</svg>
