<svg width="24" height="24" viewBox="0 0 24 24" fill="none" xmlns="http://www.w3.org/2000/svg">
<path fill-rule="evenodd" clip-rule="evenodd" d="M11.25 3C10.8362 3 10.5 3.33624 10.5 3.75V20.25C10.5 20.6638 10.8362 21 11.25 21H12.75C13.1638 21 13.5 20.6638 13.5 20.25V3.75C13.5 3.33624 13.1638 3 12.75 3H11.25ZM3.75 12C3.33624 12 3 12.3362 3 12.75V20.25C3 20.6638 3.33624 21 3.75 21H5.25C5.66376 21 6 20.6638 6 20.25V12.75C6 12.3362 5.66376 12 5.25 12H3.75ZM20.25 6H18.75C18.3362 6 18 6.33624 18 6.75V20.25C18 20.6638 18.3362 21 18.75 21H20.25C20.6638 21 21 20.6638 21 20.25V6.75C21 6.33624 20.6638 6 20.25 6ZM11.25 1.5C10.0078 1.5 9 2.50781 9 3.75V20.25C9 21.4922 10.0078 22.5 11.25 22.5H12.75C13.9922 22.5 15 21.4922 15 20.25V3.75C15 2.50781 13.9922 1.5 12.75 1.5H11.25ZM3.75 10.5C2.50781 10.5 1.5 11.5078 1.5 12.75V20.25C1.5 21.4922 2.50781 22.5 3.75 22.5H5.25C6.49219 22.5 7.5 21.4922 7.5 20.25V12.75C7.5 11.5078 6.49219 10.5 5.25 10.5H3.75ZM20.25 4.5H18.75C17.5078 4.5 16.5 5.50781 16.5 6.75V20.25C16.5 21.4922 17.5078 22.5 18.75 22.5H20.25C21.4922 22.5 22.5 21.4922 22.5 20.25V6.75C22.5 5.50781 21.4922 4.5 20.25 4.5Z" fill="#8386A5"/>
</svg>
