<svg width="14" height="14" viewBox="0 0 14 14" fill="none" xmlns="http://www.w3.org/2000/svg">
    <path
        d="M7 0.21875C10.7188 0.21875 13.7812 3.28125 13.7812 7C13.7812 10.7461 10.7188 13.7812 7 13.7812C3.25391 13.7812 0.21875 10.7461 0.21875 7C0.21875 3.28125 3.25391 0.21875 7 0.21875ZM7 1.53125C3.96484 1.53125 1.53125 3.99219 1.53125 7C1.53125 10.0352 3.96484 12.4688 7 12.4688C10.0078 12.4688 12.4688 10.0352 12.4688 7C12.4688 3.99219 10.0078 1.53125 7 1.53125ZM10.8281 5.11328C10.9375 5.22266 10.9375 5.44141 10.8281 5.57812L6.09766 10.2539C5.96094 10.3906 5.76953 10.3906 5.63281 10.2539L3.14453 7.73828C3.03516 7.62891 3.03516 7.41016 3.14453 7.27344L3.77344 6.67188C3.91016 6.53516 4.10156 6.53516 4.23828 6.67188L5.87891 8.3125L9.73438 4.48438C9.87109 4.34766 10.0898 4.34766 10.1992 4.48438L10.8281 5.11328Z"
        fill="#5E00CC" />
</svg>