<svg width="24" height="24" viewBox="0 0 24 24" fill="none" xmlns="http://www.w3.org/2000/svg">
    <path
        d="M12 2C6.46939 2 2 6.46939 2 12C2 17.5306 6.46939 22 12 22C17.5306 22 22 17.5306 22 12C22 6.46939 17.5306 2 12 2ZM12 20.3388C7.40408 20.3388 3.66122 16.5959 3.66122 12C3.66122 7.40408 7.40408 3.66122 12 3.66122C16.5959 3.66122 20.3388 7.40408 20.3388 12C20.3388 16.5959 16.5959 20.3388 12 20.3388Z"
        fill="#8386A5" />
    <path
        d="M13.8734 11.147H12.853V7.2327C12.853 6.76331 12.4694 6.37964 12 6.37964C11.5306 6.37964 11.1469 6.76331 11.1469 7.2327V12C11.1469 12.4694 11.5306 12.8531 12 12.8531H13.8734C14.3428 12.8531 14.7265 12.4694 14.7265 12C14.7265 11.5307 14.3387 11.147 13.8734 11.147Z"
        fill="#8386A5" />
</svg>