<svg width="24" height="24" viewBox="0 0 24 24" fill="none" xmlns="http://www.w3.org/2000/svg">
    <path
        d="M12.5215 5.72168V12.4623L17.3309 15.2936L17.7902 14.5061L13.4496 11.9185V5.72168H12.5215Z"
        fill="black" />
    <path
        d="M5.00313 16.7562H3.95313C5.63125 20.0375 9.04375 22.2875 12.9906 22.2875C18.5875 22.2875 23.1344 17.75 23.1344 12.1437C23.1344 6.54687 18.5969 2 12.9906 2C8.02187 2 3.8875 5.57187 3.01563 10.2969H1L3.30625 13.0625L5.6125 10.2969H3.95313C4.80625 6.0875 8.52813 2.91875 12.9906 2.91875C18.0813 2.91875 22.2063 7.04375 22.2063 12.1344C22.2063 17.225 18.0813 21.35 12.9906 21.35C9.57812 21.3594 6.59688 19.5125 5.00313 16.7562Z"
        fill="black" />
</svg>