<svg width="24" height="24" viewBox="0 0 24 24" fill="none" xmlns="http://www.w3.org/2000/svg">
    <path
        d="M11.3999 13C11.9796 13 12.4497 13.4701 12.4497 14.0498C12.4496 14.6294 11.9795 15.0996 11.3999 15.0996H7.6499C4.91609 15.0996 2.69971 17.316 2.69971 20.0498V20.5H11.3999C11.9796 20.5 12.4497 20.9701 12.4497 21.5498C12.4496 22.1294 11.9795 22.5996 11.3999 22.5996H1.6499C1.10655 22.5996 0.658915 22.1864 0.60498 21.6572L0.600098 21.5498V20.0498C0.600098 16.1559 3.75597 13 7.6499 13H11.3999ZM18.7808 14.1309C19.7758 13.0874 21.3562 12.9064 22.4292 13.8496C23.6584 14.9335 23.7171 16.8612 22.6245 18.0254L18.8394 22.04C18.6052 22.301 18.1946 22.301 17.9604 22.04L14.1753 18.0254C13.0827 16.8612 13.1414 14.9335 14.3706 13.8496C15.4436 12.9064 17.0435 13.0874 18.019 14.1309L18.4097 14.5322L18.7808 14.1309ZM11.3999 1C14.4628 1 16.9497 3.48609 16.9497 6.5498C16.9496 9.61263 14.4628 12.0996 11.3999 12.0996C8.33705 12.0996 5.85023 9.61263 5.8501 6.5498C5.8501 3.48609 8.337 1 11.3999 1ZM11.3999 3.09961C9.49559 3.09961 7.94971 4.64549 7.94971 6.5498C7.94984 8.4533 9.49571 10 11.3999 10C13.3041 10 14.85 8.4533 14.8501 6.5498C14.8501 4.64549 13.3042 3.09961 11.3999 3.09961Z"
        fill="#8386A5" />
</svg>