<svg xmlns="http://www.w3.org/2000/svg" xmlns:xlink="http://www.w3.org/1999/xlink" width="24px"
    height="24px" viewBox="0 0 24 24" version="1.1">
    <g id="surface1">
        <path
            style="fill:none;stroke-width:66.666702;stroke-linecap:round;stroke-linejoin:round;stroke:#8386a5;stroke-opacity:1;stroke-miterlimit:4;"
            d="M 500 300 L 416.666667 383.333333 M 500 300 L 500 200 L 600 100 L 600 200 L 700 200 L 600 300 Z M 500 300 "
            transform="matrix(0.03,0,0,0.03,0,0)" />
        <path
            style="fill:none;stroke-width:66.666702;stroke-linecap:round;stroke-linejoin:round;stroke:#8386a5;stroke-opacity:1;stroke-miterlimit:4;"
            d="M 410.9375 100 L 400 100 C 340.625 100 282.682292 117.578125 233.333333 150.520833 C 183.984375 183.463542 145.572917 230.338542 122.786458 285.15625 C 100.130208 339.973958 94.140625 400.390625 105.729167 458.463542 C 117.317708 516.666667 145.963542 570.182292 187.890625 612.109375 C 229.817708 654.036458 283.333333 682.682292 341.536458 694.270833 C 399.609375 705.859375 460.026042 699.869792 514.84375 677.213542 C 569.661458 654.427083 616.536458 616.015625 649.479167 566.666667 C 682.421875 517.317708 700 459.375 700 400 C 700 396.354167 700 392.708333 700 389.0625 "
            transform="matrix(0.03,0,0,0.03,0,0)" />
        <path
            style="fill:none;stroke-width:66.666702;stroke-linecap:round;stroke-linejoin:round;stroke:#8386a5;stroke-opacity:1;stroke-miterlimit:4;"
            d="M 563.28125 433.333333 C 557.291667 462.890625 543.359375 490.104167 523.046875 512.369792 C 502.734375 534.635417 476.822917 550.911458 448.046875 559.635417 C 419.140625 568.229167 388.541667 568.880208 359.375 561.588542 C 330.078125 554.166667 303.515625 539.0625 282.161458 517.838542 C 260.9375 496.484375 245.833333 469.921875 238.411458 440.625 C 231.119792 411.458333 231.770833 380.859375 240.364583 351.953125 C 249.088542 323.177083 265.364583 297.265625 287.630208 276.953125 C 309.895833 256.640625 337.109375 242.708333 366.666667 236.71875 "
            transform="matrix(0.03,0,0,0.03,0,0)" />
    </g>
</svg>