<svg width="800" height="800" viewBox="0 0 800 800" fill="none" xmlns="http://www.w3.org/2000/svg">
    <path d="M500 300L416.667 383.333M500 300V200L600 100V200H700L600 300H500Z" stroke="black"
        stroke-width="66.6667" stroke-linecap="round" stroke-linejoin="round" />
    <path
        d="M411 100H400C340.666 100 282.664 117.595 233.329 150.559C183.994 183.524 145.542 230.377 122.836 285.195C100.13 340.013 94.1889 400.333 105.764 458.527C117.34 516.721 145.912 570.176 187.868 612.132C229.824 654.088 283.279 682.66 341.473 694.236C399.667 705.811 459.987 699.87 514.805 677.164C569.623 654.458 616.476 616.006 649.441 566.671C682.405 517.336 700 459.334 700 400C700 396.333 700 392.667 700 389"
        stroke="black" stroke-width="66.6667" stroke-linecap="round" stroke-linejoin="round" />
    <path
        d="M563.333 433.333C557.304 462.83 543.398 490.143 523.091 512.371C502.785 534.599 476.837 550.911 448.003 559.574C419.17 568.238 388.528 568.93 359.333 561.576C330.138 554.222 303.48 539.097 282.192 517.808C260.903 496.52 245.778 469.862 238.424 440.667C231.071 411.472 231.762 380.83 240.426 351.997C249.089 323.164 265.401 297.215 287.629 276.909C309.857 256.602 337.17 242.696 366.667 236.667"
        stroke="black" stroke-width="66.6667" stroke-linecap="round" stroke-linejoin="round" />
</svg>