<svg width="65" height="64" viewBox="0 0 65 64" fill="none" xmlns="http://www.w3.org/2000/svg">
<path d="M40.1246 30.5L42.8746 36H56.4996L33.7496 59.25C33.2496 59.75 32.6663 60 31.9996 60C31.4163 60 30.9163 59.75 30.4996 59.25L7.74964 36H19.4996L23.2496 27L30.3746 42.875C30.708 43.625 31.2913 44 32.1246 44C32.958 44 33.5413 43.625 33.8746 42.875L40.1246 30.5ZM59.3746 9.25C62.3746 12.3333 63.958 16.0833 64.1246 20.5C64.2913 24.8333 62.9996 28.6667 60.2496 32H45.3746L41.8746 25.125C41.5413 24.375 40.958 24 40.1246 24C39.2913 24 38.708 24.375 38.3746 25.125L32.2496 37.375L24.9996 21.125C24.583 20.375 23.9163 20 22.9996 20C22.1663 20 21.583 20.4167 21.2496 21.25L16.7496 32H3.99964C1.24964 28.6667 -0.0420294 24.8333 0.124637 20.5C0.291304 16.0833 1.87464 12.3333 4.87464 9.25L5.24964 9C8.4163 5.66667 12.2913 4 16.8746 4C21.458 4 25.3746 5.66667 28.6246 9L32.1246 12.5L35.6246 8.875C38.8746 5.625 42.7913 4 47.3746 4C51.958 4 55.833 5.625 58.9996 8.875L59.3746 9.25Z" fill="#5E00CC"/>
<path d="M40.1246 30.5L42.8746 36H56.4996L33.7496 59.25C33.2496 59.75 32.6663 60 31.9996 60C31.4163 60 30.9163 59.75 30.4996 59.25L7.74964 36H19.4996L23.2496 27L30.3746 42.875C30.708 43.625 31.2913 44 32.1246 44C32.958 44 33.5413 43.625 33.8746 42.875L40.1246 30.5ZM59.3746 9.25C62.3746 12.3333 63.958 16.0833 64.1246 20.5C64.2913 24.8333 62.9996 28.6667 60.2496 32H45.3746L41.8746 25.125C41.5413 24.375 40.958 24 40.1246 24C39.2913 24 38.708 24.375 38.3746 25.125L32.2496 37.375L24.9996 21.125C24.583 20.375 23.9163 20 22.9996 20C22.1663 20 21.583 20.4167 21.2496 21.25L16.7496 32H3.99964C1.24964 28.6667 -0.0420294 24.8333 0.124637 20.5C0.291304 16.0833 1.87464 12.3333 4.87464 9.25L5.24964 9C8.4163 5.66667 12.2913 4 16.8746 4C21.458 4 25.3746 5.66667 28.6246 9L32.1246 12.5L35.6246 8.875C38.8746 5.625 42.7913 4 47.3746 4C51.958 4 55.833 5.625 58.9996 8.875L59.3746 9.25Z" fill="#000000"/>
</svg>
