<svg width="1024" height="1024" viewBox="0 0 1024 1024" fill="none" xmlns="http://www.w3.org/2000/svg">
<rect width="1024" height="1024" rx="230" fill="url(#paint0_linear_2178_3579)"/>
<path d="M482.42 876.814L206.797 718.644C188.174 707.479 177 688.871 177 668.402V353.924C177 333.455 188.174 314.847 206.797 303.682L460.072 160.399L482.42 147.374C501.043 136.209 523.391 136.209 540.152 147.374L817.638 305.543C836.261 316.708 847.435 335.316 847.435 355.785V670.263C847.435 690.732 836.261 709.34 817.638 720.505L540.152 878.675C523.391 886.118 501.043 886.118 482.42 876.814Z" fill="#000000"/>
<path d="M687.275 553.032H724.522C728.246 553.032 730.109 551.171 730.109 547.449V480.46C730.109 474.877 726.384 471.156 720.797 471.156H687.275C683.551 471.156 681.688 473.016 681.688 476.738V547.449C681.688 551.171 683.551 553.032 687.275 553.032Z" fill="url(#paint1_linear_2178_3579)"/>
<path d="M592.298 614.439H623.957C627.682 614.439 631.406 610.717 631.406 606.995V419.053C631.406 413.47 627.682 409.749 622.095 409.749H592.298C588.573 409.749 584.849 413.47 584.849 417.192V605.135C584.849 610.717 588.573 614.439 592.298 614.439Z" fill="url(#paint2_linear_2178_3579)"/>
<path d="M501.044 731.67H525.254C532.703 731.67 538.29 726.087 538.29 718.644V301.821C538.29 296.239 534.566 292.517 528.979 292.517H502.906C495.457 292.517 489.87 298.1 489.87 305.543V720.505C488.008 726.087 493.594 731.67 501.044 731.67Z" fill="url(#paint3_linear_2178_3579)"/>
<path d="M400.479 638.629H430.276C435.863 638.629 439.588 634.908 439.588 629.325V394.862C439.588 389.28 435.863 385.558 430.276 385.558H400.479C394.892 385.558 391.168 389.28 391.168 394.862V631.186C391.168 634.908 394.892 638.629 400.479 638.629Z" fill="url(#paint4_linear_2178_3579)"/>
<path d="M299.914 564.197H337.16C340.885 564.197 342.747 562.336 342.747 558.614V471.156C342.747 465.573 339.022 461.852 333.435 461.852H299.914C296.189 461.852 294.327 463.713 294.327 467.434V558.614C294.327 560.475 296.189 564.197 299.914 564.197Z" fill="url(#paint5_linear_2178_3579)"/>
<defs>
<linearGradient id="paint0_linear_2178_3579" x1="512" y1="3.38062e-07" x2="501.186" y2="1023.89" gradientUnits="userSpaceOnUse">
<stop stop-color="#E5C8FF"/>
<stop offset="1" stop-color="#FDFAFF"/>
</linearGradient>
<linearGradient id="paint1_linear_2178_3579" x1="696.719" y1="483.421" x2="697.152" y2="542.601" gradientUnits="userSpaceOnUse">
<stop stop-color="#D9AFFF"/>
<stop offset="1" stop-color="white"/>
</linearGradient>
<linearGradient id="paint2_linear_2178_3579" x1="599.301" y1="440.413" x2="602.111" y2="588.317" gradientUnits="userSpaceOnUse">
<stop stop-color="#D9AFFF"/>
<stop offset="1" stop-color="white"/>
</linearGradient>
<linearGradient id="paint3_linear_2178_3579" x1="504.652" y1="358.307" x2="516.981" y2="675.262" gradientUnits="userSpaceOnUse">
<stop stop-color="#D9AFFF"/>
<stop offset="1" stop-color="white"/>
</linearGradient>
<linearGradient id="paint4_linear_2178_3579" x1="406.198" y1="423.471" x2="410.327" y2="606.306" gradientUnits="userSpaceOnUse">
<stop stop-color="#D9AFFF"/>
<stop offset="1" stop-color="white"/>
</linearGradient>
<linearGradient id="paint5_linear_2178_3579" x1="309.357" y1="477.184" x2="310.033" y2="551.156" gradientUnits="userSpaceOnUse">
<stop stop-color="#D9AFFF"/>
<stop offset="1" stop-color="white"/>
</linearGradient>
</defs>
</svg>
