<svg width="64" height="64" viewBox="0 0 64 64" fill="none" xmlns="http://www.w3.org/2000/svg">
<path d="M39.5884 51.4707C40.059 52.0589 40.059 53.0001 39.5884 53.4707L34.2943 58.7648C27.3532 65.7059 15.9415 65.7059 9.00039 58.7648C2.05927 51.8236 2.05927 40.4119 9.00039 33.4708L14.2945 28.1767C14.7651 27.7061 15.7062 27.7061 16.2945 28.1767L20.8827 32.8826C21.4709 33.4708 21.4709 34.2943 20.8827 34.8826L15.7062 40.1766C12.2945 43.4707 12.2945 48.7648 15.7062 52.0589C19.0003 55.4707 24.2944 55.4707 27.5885 52.0589L32.8826 46.8825C33.4708 46.2943 34.2943 46.2943 34.8826 46.8825L39.5884 51.4707ZM32.8826 20.8827L28.1767 16.2945C27.7061 15.7062 27.7061 14.7651 28.1767 14.2945L33.4708 9.00039C40.4119 2.05927 51.8236 2.05927 58.7648 9.00039C65.7059 15.9415 65.7059 27.3532 58.7648 34.2943L53.4707 39.5884C53.0001 40.059 52.0589 40.059 51.4707 39.5884L46.8825 34.8826C46.2943 34.2943 46.2943 33.4708 46.8825 32.8826L52.0589 27.5885C55.4707 24.2944 55.4707 19.0003 52.0589 15.7062C48.7648 12.2945 43.4707 12.2945 40.1766 15.7062L34.8826 20.8827C34.2943 21.4709 33.4708 21.4709 32.8826 20.8827ZM60.5294 63.1177C59.353 64.2941 57.5883 64.2941 56.5295 63.1177L4.64748 11.2357C3.47102 10.1769 3.47102 8.41216 4.64748 7.2357L7.2357 4.64748C8.41216 3.47102 10.1769 3.47102 11.2357 4.64748L63.1177 56.5295C64.2941 57.5883 64.2941 59.353 63.1177 60.5294L60.5294 63.1177Z" fill="#000000"/>
<path d="M35.8233 47.7056C36.2939 48.2938 36.2939 49.235 35.8233 49.7055L30.5292 54.9996C23.5881 61.9407 12.1764 61.9407 5.23526 54.9996C-1.70587 48.0585 -1.70587 36.6468 5.23526 29.7057L10.5293 24.4116C10.9999 23.941 11.9411 23.941 12.5293 24.4116L17.1175 29.1174C17.7058 29.7057 17.7058 30.5292 17.1175 31.1174L11.9411 36.4115C8.52935 39.7056 8.52935 44.9997 11.9411 48.2938C15.2352 51.7055 20.5293 51.7055 23.8234 48.2938L29.1174 43.1173C29.7057 42.5291 30.5292 42.5291 31.1174 43.1173L35.8233 47.7056ZM29.1174 17.1175L24.4116 12.5293C23.941 11.9411 23.941 10.9999 24.4116 10.5293L29.7057 5.23526C36.6468 -1.70587 48.0585 -1.70587 54.9996 5.23526C61.9407 12.1764 61.9407 23.5881 54.9996 30.5292L49.7055 35.8233C49.235 36.2939 48.2938 36.2939 47.7056 35.8233L43.1173 31.1174C42.5291 30.5292 42.5291 29.7057 43.1173 29.1174L48.2938 23.8234C51.7055 20.5293 51.7055 15.2352 48.2938 11.9411C44.9997 8.52935 39.7056 8.52935 36.4115 11.9411L31.1174 17.1175C30.5292 17.7058 29.7057 17.7058 29.1174 17.1175ZM56.7643 59.3525C55.5878 60.529 53.8232 60.529 52.7643 59.3525L0.882347 7.47054C-0.294116 6.41172 -0.294116 4.64703 0.882347 3.47056L3.47056 0.882347C4.64703 -0.294116 6.41172 -0.294116 7.47054 0.882347L59.3525 52.7643C60.529 53.8232 60.529 55.5878 59.3525 56.7643L56.7643 59.3525Z" fill="white"/>
<path fill-rule="evenodd" clip-rule="evenodd" d="M17.1175 29.1174L12.5293 24.4116C11.9411 23.941 10.9999 23.941 10.5293 24.4116L5.23526 29.7057C-1.70587 36.6468 -1.70587 48.0585 5.23526 54.9996C12.1764 61.9407 23.5881 61.9407 30.5292 54.9996L35.8233 49.7055C36.2939 49.235 36.2939 48.2938 35.8233 47.7056L31.1174 43.1173C30.5292 42.5291 29.7057 42.5291 29.1174 43.1173L23.8234 48.2938C20.5293 51.7055 15.2352 51.7055 11.9411 48.2938C8.52935 44.9997 8.52935 39.7056 11.9411 36.4115L17.1175 31.1174C17.7058 30.5292 17.7058 29.7057 17.1175 29.1174ZM11.2774 35.744C7.49633 39.4051 7.49568 45.2976 11.2755 48.9594C14.9373 52.7392 20.8298 52.7385 24.4908 48.9575L29.7754 43.7903L29.783 43.7829C29.9177 43.6482 30.0373 43.6173 30.1174 43.6173C30.1976 43.6173 30.3172 43.6482 30.4519 43.7829L35.114 48.3285C35.1866 48.4363 35.2351 48.5885 35.2351 48.7497C35.2351 48.9359 35.1735 49.0243 35.1578 49.04L29.8637 54.3341C23.2901 60.9077 12.4743 60.9077 5.90076 54.3341C-0.672813 47.7605 -0.672813 36.9448 5.90076 30.3712L11.1948 25.0771C11.2106 25.0613 11.2989 24.9998 11.4852 24.9998C11.6464 24.9998 11.7985 25.0482 11.9063 25.1208L16.4437 29.7745L16.452 29.783C16.5867 29.9177 16.6175 30.0373 16.6175 30.1174C16.6175 30.1976 16.5867 30.3172 16.452 30.4519L11.2774 35.744ZM29.783 16.452C29.9177 16.5867 30.0373 16.6175 30.1174 16.6175C30.1976 16.6175 30.3172 16.5867 30.4519 16.452L30.4594 16.4445L35.744 11.2774C39.4051 7.49633 45.2976 7.49568 48.9594 11.2755C52.7392 14.9373 52.7385 20.8298 48.9575 24.4908L43.7829 29.783C43.6482 29.9177 43.6173 30.0373 43.6173 30.1174C43.6173 30.1976 43.6482 30.3172 43.7829 30.4519L43.7913 30.4603L48.3285 35.114C48.4363 35.1866 48.5885 35.2351 48.7497 35.2351C48.9359 35.2351 49.0243 35.1735 49.04 35.1578L54.3341 29.8637C60.9077 23.2901 60.9077 12.4743 54.3341 5.90076C47.7605 -0.672813 36.9448 -0.672813 30.3712 5.90076L25.0771 11.1948C25.0613 11.2106 24.9998 11.2989 24.9998 11.4852C24.9998 11.6464 25.0482 11.7985 25.1208 11.9063L29.783 16.452ZM24.4116 12.5293C23.941 11.9411 23.941 10.9999 24.4116 10.5293L29.7057 5.23526C36.6468 -1.70587 48.0585 -1.70587 54.9996 5.23526C61.9407 12.1764 61.9407 23.5881 54.9996 30.5292L49.7055 35.8233C49.235 36.2939 48.2938 36.2939 47.7056 35.8233L43.1173 31.1174C42.5291 30.5292 42.5291 29.7057 43.1173 29.1174L48.2938 23.8234C51.7055 20.5293 51.7055 15.2352 48.2938 11.9411C44.9997 8.52935 39.7056 8.52935 36.4115 11.9411L31.1174 17.1175C30.5292 17.7058 29.7057 17.7058 29.1174 17.1175L24.4116 12.5293ZM53.4473 58.7045L53.4639 58.7229C54.1303 59.4634 55.2693 59.5165 56.0988 58.687L58.687 56.0988C59.5165 55.2693 59.4634 54.1303 58.7229 53.4639L58.7045 53.4473L6.78753 1.53035L6.77097 1.51196C6.10454 0.771481 4.96556 0.718369 4.13607 1.54785L1.54785 4.13607C0.718369 4.96556 0.771481 6.10454 1.51196 6.77097L1.53035 6.78753L53.4473 58.7045ZM0.882347 7.47054L52.7643 59.3525C53.8232 60.529 55.5878 60.529 56.7643 59.3525L59.3525 56.7643C60.529 55.5878 60.529 53.8232 59.3525 52.7643L7.47054 0.882347C6.41172 -0.294116 4.64703 -0.294116 3.47056 0.882347L0.882347 3.47056C-0.294116 4.64703 -0.294116 6.41172 0.882347 7.47054Z" fill="#5E00CC"/>
</svg>
