<svg width="40" height="40" viewBox="0 0 40 40" fill="none" xmlns="http://www.w3.org/2000/svg">
    <path
        d="M32.6559 29.5832C32.6559 29.5832 32.6559 29.5832 32.708 29.5832C33.0205 29.5832 33.2809 29.8957 33.333 30.2082L33.333 32.7082C33.333 33.0207 33.0205 33.3332 32.708 33.3332L22.2393 33.3332C21.9268 33.3332 21.6143 33.0207 21.6143 32.7082L21.6143 22.2394C21.6143 21.9269 21.9268 21.6144 22.2393 21.6144L24.7393 21.6144C25.0518 21.6144 25.3643 21.9269 25.3643 22.2394L25.3643 22.2915L25.1038 27.5519C27.3434 26.0415 29.1143 22.6561 29.1143 19.9478C29.1143 15.9894 25.9893 11.979 22.1351 11.0415C21.8747 10.9894 21.6663 10.729 21.6663 10.4686L21.6663 7.9165C21.6663 7.55192 21.9268 7.2915 22.2913 7.2915C22.2913 7.2915 22.3434 7.2915 22.3955 7.2915C28.3851 8.38525 32.9163 13.6457 32.9163 19.9478L32.9163 19.9998C32.9163 23.2811 30.833 27.6561 28.333 29.7915L32.6559 29.5832ZM10.833 19.9478C10.833 23.9582 13.958 27.9165 17.8122 28.854C18.0726 28.9582 18.2809 29.2186 18.333 29.479L18.333 32.0311C18.333 32.3957 18.0205 32.6561 17.708 32.6561C17.6559 32.6561 17.6038 32.6561 17.5518 32.6561C11.5622 31.5103 7.08301 26.2498 7.08301 19.9478C7.08301 16.6665 9.11426 12.2915 11.6143 10.1561L7.29134 10.3644C6.92676 10.3644 6.66634 10.0519 6.66634 9.73942L6.66634 7.2915C6.66634 6.92692 6.92676 6.6665 7.29134 6.6665L17.708 6.6665C18.0205 6.6665 18.333 6.92692 18.333 7.2915L18.333 17.7082C18.333 18.0207 18.0205 18.3332 17.708 18.3332L15.208 18.3332C14.8955 18.3332 14.583 18.0207 14.583 17.7082L14.583 17.6561L14.8434 12.3436C12.6038 13.854 10.833 17.2394 10.833 19.9478Z"
        fill="#8386A5" />
</svg>
    