<svg width="31" height="38" viewBox="0 0 31 38" fill="none" xmlns="http://www.w3.org/2000/svg">
    <g filter="url(#filter0_d_6550_8864)">
        <path
            d="M14.4426 29.6442C8.12524 20.5577 7.00024 19.6058 7.00024 16.2308C7.00024 11.6442 10.6781 7.9231 15.3079 7.9231C19.8945 7.9231 23.6156 11.6442 23.6156 16.2308C23.6156 19.6058 22.4474 20.5577 16.1301 29.6442C15.7406 30.25 14.832 30.25 14.4426 29.6442ZM15.3079 19.6923C17.2118 19.6923 18.7695 18.1779 18.7695 16.2308C18.7695 14.3269 17.2118 12.7692 15.3079 12.7692C13.3608 12.7692 11.8464 14.3269 11.8464 16.2308C11.8464 18.1779 13.3608 19.6923 15.3079 19.6923Z"
            fill="#5E00CC" />
        <path
            d="M15.3079 7.4231C20.1705 7.4231 24.1154 11.3681 24.1155 16.2307C24.1155 17.1054 24.0396 17.8489 23.8137 18.6145C23.5889 19.3764 23.2228 20.1366 22.6702 21.054C21.5773 22.868 19.6824 25.4105 16.5403 29.9299L16.5393 29.929C15.9511 30.8207 14.6205 30.8209 14.0325 29.929V29.9299C10.8897 25.4095 9.00589 22.8676 7.9231 21.052C7.37554 20.1339 7.01459 19.3735 6.79419 18.6116C6.57289 17.8465 6.50024 17.104 6.50024 16.2307C6.50028 11.3698 10.4003 7.42314 15.3079 7.4231ZM15.3079 13.2688C13.641 13.2688 12.346 14.599 12.3459 16.2307C12.3459 17.9017 13.6369 19.1926 15.3079 19.1926C16.9397 19.1926 18.2698 17.8976 18.2698 16.2307C18.2697 14.603 16.9355 13.2688 15.3079 13.2688Z"
            stroke="white" />
    </g>
    <defs>
        <filter id="filter0_d_6550_8864" x="0.000244141" y="0.923096" width="30.6155"
            height="36.1755" filterUnits="userSpaceOnUse" color-interpolation-filters="sRGB">
            <feFlood flood-opacity="0" result="BackgroundImageFix" />
            <feColorMatrix in="SourceAlpha" type="matrix"
                values="0 0 0 0 0 0 0 0 0 0 0 0 0 0 0 0 0 0 127 0" result="hardAlpha" />
            <feOffset />
            <feGaussianBlur stdDeviation="3" />
            <feComposite in2="hardAlpha" operator="out" />
            <feColorMatrix type="matrix" values="0 0 0 0 0 0 0 0 0 0 0 0 0 0 0 0 0 0 0.25 0" />
            <feBlend mode="normal" in2="BackgroundImageFix" result="effect1_dropShadow_6550_8864" />
            <feBlend mode="normal" in="SourceGraphic" in2="effect1_dropShadow_6550_8864"
                result="shape" />
        </filter>
    </defs>
</svg>
    