<svg width="160" height="40" viewBox="0 0 160 40" fill="none" xmlns="http://www.w3.org/2000/svg">
<g clip-path="url(#clip0_180_2)">
<path d="M58.4442 11.825C59.5906 12.3375 60.4851 13.075 61.1024 14.025C61.7198 14.975 62.0347 16.1 62.0347 17.4C62.0347 18.7 61.7198 19.8 61.1024 20.7625C60.4851 21.725 59.5906 22.45 58.4442 22.9625C57.2977 23.475 55.9371 23.725 54.3749 23.725H50.8221V28.55H46.7402V11.05H54.3749C55.9371 11.05 57.2977 11.3125 58.4442 11.825ZM56.9324 19.6375C57.5749 19.1125 57.8898 18.3625 57.8898 17.4C57.8898 16.4375 57.5749 15.6625 56.9324 15.1375C56.2898 14.6125 55.3576 14.35 54.1355 14.35H50.8095V20.425H54.1355C55.3576 20.425 56.2898 20.1625 56.9324 19.6375Z" fill="#131420"/>
<path d="M78.2992 15.1001V28.5501H74.57V26.9501C74.0535 27.5376 73.4236 27.9751 72.7055 28.2876C71.9874 28.6001 71.2063 28.7501 70.3622 28.7501C68.5858 28.7501 67.1748 28.2376 66.1291 27.2251C65.0834 26.2126 64.5669 24.7001 64.5669 22.7001V15.1001H68.4976V22.1251C68.4976 24.2876 69.4173 25.3751 71.2441 25.3751C72.1889 25.3751 72.9448 25.0751 73.5118 24.4626C74.0787 23.8501 74.3685 22.9501 74.3685 21.7501V15.1001H78.2992Z" fill="#131420"/>
<path d="M81.7007 10H85.6314V28.55H81.7007V10Z" fill="#131420"/>
<path d="M90.3054 28.3374C89.2346 28.0624 88.3779 27.7124 87.7354 27.2999L89.0456 24.4999C89.6503 24.8874 90.381 25.1999 91.2377 25.4374C92.0944 25.6749 92.9385 25.7999 93.7574 25.7999C95.4204 25.7999 96.2519 25.3874 96.2519 24.5749C96.2519 24.1874 96.0251 23.9124 95.5716 23.7499C95.118 23.5874 94.4251 23.4374 93.4802 23.3249C92.3716 23.1624 91.4519 22.9624 90.7338 22.7499C90.0157 22.5374 89.3857 22.1499 88.8566 21.5999C88.3275 21.0499 88.0629 20.2624 88.0629 19.2499C88.0629 18.3999 88.3149 17.6499 88.8062 16.9874C89.2976 16.3249 90.0283 15.8124 90.9731 15.4499C91.918 15.0874 93.0393 14.8999 94.3369 14.8999C95.2944 14.8999 96.2519 14.9999 97.1968 15.2124C98.1416 15.4249 98.9353 15.7124 99.5527 16.0749L98.2424 18.8499C97.0456 18.1874 95.7479 17.8499 94.3369 17.8499C93.4928 17.8499 92.8629 17.9624 92.4472 18.1999C92.0314 18.4374 91.8172 18.7374 91.8172 19.0999C91.8172 19.5124 92.044 19.8124 92.4976 19.9749C92.9511 20.1374 93.6692 20.2999 94.6645 20.4499C95.7731 20.6374 96.6802 20.8249 97.3857 21.0374C98.0913 21.2499 98.7086 21.6249 99.2251 22.1749C99.7416 22.7249 100.006 23.4874 100.006 24.4749C100.006 25.3124 99.7542 26.0499 99.2503 26.6999C98.7464 27.3499 98.0157 27.8499 97.0456 28.2124C96.0755 28.5749 94.929 28.7499 93.6062 28.7499C92.485 28.7499 91.3763 28.6124 90.3054 28.3374Z" fill="#131420"/>
<path d="M115.364 22.9249H105.109C105.298 23.7624 105.726 24.4124 106.419 24.8999C107.112 25.3874 107.969 25.6249 108.989 25.6249C109.695 25.6249 110.324 25.5249 110.866 25.3124C111.408 25.0999 111.924 24.7749 112.391 24.3249L114.482 26.5749C113.21 28.0249 111.345 28.7499 108.888 28.7499C107.364 28.7499 106.003 28.4499 104.832 27.8624C103.66 27.2749 102.753 26.4499 102.11 25.3999C101.468 24.3499 101.153 23.1624 101.153 21.8249C101.153 20.4874 101.468 19.3249 102.098 18.2624C102.728 17.1999 103.597 16.3749 104.693 15.7874C105.789 15.1999 107.024 14.8999 108.384 14.8999C109.745 14.8999 110.917 15.1874 111.987 15.7499C113.058 16.3124 113.902 17.1249 114.52 18.1874C115.137 19.2499 115.439 20.4749 115.439 21.8749C115.439 21.9249 115.414 22.2749 115.364 22.9249ZM106.167 18.5999C105.562 19.0999 105.197 19.7874 105.058 20.6499H111.736C111.597 19.7999 111.232 19.1249 110.627 18.6124C110.022 18.0999 109.279 17.8499 108.41 17.8499C107.54 17.8499 106.772 18.0999 106.167 18.5999Z" fill="#131420"/>
<path d="M120.038 26.775C118.64 25.3875 117.934 23.4125 117.934 20.85V11.05H122.016V20.7C122.016 23.8375 123.326 25.4 125.947 25.4C127.219 25.4 128.202 25.025 128.87 24.2625C129.537 23.5 129.877 22.3125 129.877 20.7V11.05H133.909V20.85C133.909 23.4125 133.203 25.3875 131.805 26.775C130.407 28.1625 128.441 28.85 125.921 28.85C123.402 28.85 121.436 28.1625 120.038 26.775Z" fill="#131420"/>
<path d="M148.863 15.7624C149.896 16.3374 150.702 17.1499 151.295 18.1874C151.887 19.2249 152.176 20.4374 152.176 21.8249C152.176 23.2124 151.887 24.4249 151.295 25.4624C150.702 26.4999 149.896 27.3124 148.863 27.8874C147.83 28.4624 146.684 28.7499 145.424 28.7499C143.698 28.7499 142.337 28.2124 141.342 27.1249V33.3999H137.411V15.0999H141.165V16.6499C142.136 15.4874 143.559 14.8999 145.424 14.8999C146.684 14.8999 147.83 15.1874 148.863 15.7624ZM147.225 24.5374C147.868 23.8624 148.195 22.9624 148.195 21.8249C148.195 20.6874 147.868 19.7874 147.225 19.1124C146.583 18.4374 145.751 18.0999 144.743 18.0999C143.736 18.0999 142.904 18.4374 142.262 19.1124C141.619 19.7874 141.291 20.6874 141.291 21.8249C141.291 22.9624 141.619 23.8624 142.262 24.5374C142.904 25.2124 143.736 25.5499 144.743 25.5499C145.751 25.5499 146.583 25.2124 147.225 24.5374Z" fill="#131420"/>
<path d="M154.658 28.0875C154.192 27.65 153.965 27.1125 153.965 26.475C153.965 25.8375 154.192 25.3125 154.646 24.8875C155.099 24.4625 155.679 24.25 156.384 24.25C157.09 24.25 157.669 24.4625 158.123 24.8875C158.576 25.3125 158.803 25.8375 158.803 26.475C158.803 27.1125 158.576 27.65 158.11 28.0875C157.644 28.525 157.077 28.75 156.384 28.75C155.691 28.75 155.124 28.525 154.658 28.0875ZM154.041 11.05H158.728L157.946 22.475H154.822L154.041 11.05Z" fill="#131420"/>
<path d="M153.965 26.475C153.965 27.1125 154.192 27.65 154.658 28.0875C155.124 28.525 155.691 28.75 156.384 28.75C157.077 28.75 157.644 28.525 158.11 28.0875C158.576 27.65 158.803 27.1125 158.803 26.475C158.803 25.8375 158.576 25.3125 158.123 24.8875C157.669 24.4625 157.09 24.25 156.384 24.25C155.679 24.25 155.099 24.4625 154.646 24.8875C154.192 25.3125 153.965 25.8375 153.965 26.475Z" fill="#D60040"/>
<path d="M16.5255 39.6115L1.61225 31.1213C0.604591 30.521 0 29.521 0 28.421V11.5404C0 10.4404 0.604591 9.44035 1.61225 8.84033L15.3163 1.15004L16.5255 0.450017C17.5332 -0.150006 18.7424 -0.150006 19.6492 0.450017L34.6633 8.94032C35.6709 9.54035 36.2754 10.5404 36.2754 11.6404V28.521C36.2754 29.621 35.6709 30.621 34.6633 31.2213L19.6492 39.7115C18.7424 40.1115 17.5332 40.1115 16.5255 39.6115Z" fill="#131420"/>
<path d="M8.43672 16.4998H6.62295C6.3447 16.4998 6.11914 16.7236 6.11914 16.9998V23C6.11914 23.2762 6.3447 23.5 6.62295 23.5H8.43672C8.715 23.5 8.94056 23.2762 8.94056 23V16.9998C8.94056 16.7236 8.715 16.4998 8.43672 16.4998Z" fill="white"/>
<path d="M13.7405 12.9995H11.9267C11.6484 12.9995 11.4229 13.2234 11.4229 13.4995V26.5C11.4229 26.7763 11.6484 27 11.9267 27H13.7405C14.0187 27 14.2443 26.7763 14.2443 26.5V13.4995C14.2443 13.2234 14.0187 12.9995 13.7405 12.9995Z" fill="white"/>
<path d="M24.3484 13.9641H22.5346C22.2563 13.9641 22.0308 14.188 22.0308 14.4641V25.537C22.0308 25.813 22.2563 26.037 22.5346 26.037H24.3484C24.6266 26.037 24.8522 25.813 24.8522 25.537V14.4641C24.8522 14.188 24.6266 13.9641 24.3484 13.9641Z" fill="white"/>
<path d="M19.0705 8.01294H17.2568C16.9785 8.01294 16.7529 8.23681 16.7529 8.51296V31.1648C16.7529 31.441 16.9785 31.665 17.2568 31.665H19.0705C19.3488 31.665 19.5743 31.441 19.5743 31.1648V8.51296C19.5743 8.23681 19.3488 8.01294 19.0705 8.01294Z" fill="white"/>
<path d="M29.6526 16.9634H27.8386C27.5605 16.9634 27.335 17.1872 27.335 17.4634V22.5359C27.335 22.8121 27.5605 23.036 27.8386 23.036H29.6526C29.9307 23.036 30.1563 22.8121 30.1563 22.5359V17.4634C30.1563 17.1872 29.9307 16.9634 29.6526 16.9634Z" fill="#D60040"/>
</g>
<defs>
<clipPath id="clip0_180_2">
<rect width="160" height="40" fill="white"/>
</clipPath>
</defs>
</svg>
