<svg width="124" height="39" viewBox="0 0 124 39" fill="none" xmlns="http://www.w3.org/2000/svg">
<g clip-path="url(#clip0_157_57)">
<path d="M15.9808 38.6202L1.55816 30.3409C0.584309 29.7566 0 28.7824 0 27.711V11.25C0 10.1786 0.584309 9.20454 1.55816 8.62013L14.8122 1.12013L15.9808 0.438312C16.9547 -0.146104 18.1233 -0.146104 18.9998 0.438312L33.5199 8.71754C34.4937 9.30195 35.0779 10.276 35.0779 11.3474V27.8085C35.0779 28.8799 34.4937 29.8539 33.5199 30.4384L18.9998 38.7175C18.1233 39.1073 16.9547 39.1072 15.9808 38.6202Z" fill="white"/>
<path d="M26.7034 21.6721H28.6512C28.8458 21.6721 28.9432 21.5746 28.9432 21.3798V17.8734C28.9432 17.5812 28.7485 17.3864 28.4563 17.3864H26.7034C26.5087 17.3864 26.4111 17.4837 26.4111 17.6785V21.3798C26.4111 21.5746 26.5087 21.6721 26.7034 21.6721Z" fill="url(#paint0_linear_157_57)"/>
<path d="M21.7361 24.8864H23.3917C23.5866 24.8864 23.7813 24.6916 23.7813 24.4968V14.6591C23.7813 14.3669 23.5866 14.1721 23.2944 14.1721H21.7361C21.5414 14.1721 21.3467 14.3669 21.3467 14.5617V24.3993C21.3467 24.6916 21.5414 24.8864 21.7361 24.8864Z" fill="url(#paint1_linear_157_57)"/>
<path d="M16.9548 31.0228H18.2207C18.6103 31.0228 18.9024 30.7305 18.9024 30.3409V8.52271C18.9024 8.23051 18.7077 8.03571 18.4155 8.03571H17.0521C16.6626 8.03571 16.3704 8.3279 16.3704 8.71751V30.4382C16.2731 30.7305 16.5652 31.0228 16.9548 31.0228Z" fill="url(#paint2_linear_157_57)"/>
<path d="M11.6959 26.1525H13.2541C13.5462 26.1525 13.741 25.9577 13.741 25.6657V13.3928C13.741 13.1006 13.5462 12.9058 13.2541 12.9058H11.6959C11.4037 12.9058 11.209 13.1006 11.209 13.3928V25.763C11.209 25.9577 11.4037 26.1525 11.6959 26.1525Z" fill="url(#paint3_linear_157_57)"/>
<path d="M6.43669 22.2564H8.38438C8.57914 22.2564 8.67654 22.1591 8.67654 21.9643V17.3864C8.67654 17.0942 8.48176 16.8994 8.1896 16.8994H6.43669C6.24191 16.8994 6.14453 16.9967 6.14453 17.1916V21.9643C6.14453 22.0616 6.24191 22.2564 6.43669 22.2564Z" fill="url(#paint4_linear_157_57)"/>
<path d="M50.6593 12.3798C51.5455 12.7792 52.2371 13.3539 52.7142 14.0941C53.1913 14.8344 53.4348 15.711 53.4348 16.724C53.4348 17.737 53.1913 18.5941 52.7142 19.3441C52.2371 20.0941 51.5455 20.6591 50.6593 21.0584C49.7733 21.4578 48.7215 21.6526 47.5138 21.6526H44.7676V25.4124H41.6123V11.7759H47.5138C48.7215 11.7759 49.7733 11.9805 50.6593 12.3798ZM49.5006 18.4675C49.9973 18.0584 50.2407 17.474 50.2407 16.724C50.2407 15.974 49.9973 15.3701 49.5006 14.961C49.004 14.5519 48.2832 14.3474 47.3386 14.3474H44.7676V19.0811H47.3386C48.2832 19.0811 49.004 18.8766 49.5006 18.4675Z" fill="#5E00CC"/>
<path d="M66.2117 14.9318V25.4124H63.3291V24.1657C62.9298 24.6233 62.4429 24.9643 61.8877 25.2079C61.3328 25.4514 60.729 25.5682 60.0765 25.5682C58.7034 25.5682 57.6125 25.1689 56.8044 24.38C55.996 23.5909 55.5967 22.4124 55.5967 20.8539V14.9318H58.6351V20.4059C58.6351 22.0909 59.3462 22.9383 60.7581 22.9383C61.4886 22.9383 62.0729 22.7045 62.511 22.2272C62.9493 21.7501 63.1732 21.0487 63.1732 20.1136V14.9318H66.2117Z" fill="#5E00CC"/>
<path d="M69.0361 10.9578H72.0743V25.4124H69.0361V10.9578Z" fill="#5E00CC"/>
<path d="M75.8723 25.2467C75.0447 25.0324 74.3824 24.7598 73.8857 24.4383L74.8986 22.2565C75.3659 22.5585 75.9309 22.802 76.5931 22.9871C77.2552 23.1721 77.9077 23.2696 78.5407 23.2696C79.8263 23.2696 80.469 22.9481 80.469 22.315C80.469 22.0129 80.2936 21.7986 79.9431 21.6721C79.5926 21.5455 79.0569 21.4286 78.3265 21.3409C77.4696 21.2143 76.7586 21.0585 76.2036 20.8929C75.6484 20.7273 75.1615 20.4253 74.7524 19.9968C74.3434 19.5682 74.1389 18.9546 74.1389 18.1656C74.1389 17.5033 74.3338 16.9189 74.7136 16.4026C75.0934 15.8864 75.6582 15.487 76.3885 15.2046C77.1188 14.9221 77.9858 14.776 78.9888 14.776C79.7289 14.776 80.469 14.8539 81.1994 15.0195C81.9297 15.1851 82.5432 15.4091 83.0206 15.6916L82.0077 17.8539C81.0825 17.3377 80.0795 17.0747 78.9888 17.0747C78.3363 17.0747 77.8494 17.1624 77.5279 17.3474C77.2066 17.5325 77.041 17.7663 77.041 18.0487C77.041 18.3702 77.2164 18.6039 77.5669 18.7305C77.9175 18.8572 78.4727 18.9838 79.242 19.1007C80.099 19.2468 80.8 19.3929 81.3455 19.5585C81.8909 19.724 82.368 20.0163 82.7674 20.4448C83.1664 20.8734 83.3711 21.4676 83.3711 22.237C83.3711 22.8896 83.1762 23.4644 82.7866 23.9707C82.3973 24.4773 81.8324 24.8669 81.0825 25.1494C80.3327 25.4319 79.4464 25.5682 78.4239 25.5682C77.5572 25.5682 76.7002 25.461 75.8723 25.2467Z" fill="#5E00CC"/>
<path d="M95.447 21.0292H87.5199C87.666 21.6819 87.997 22.1884 88.5327 22.5682C89.0681 22.9481 89.7304 23.1331 90.5193 23.1331C91.0647 23.1331 91.5516 23.0553 91.9702 22.8896C92.389 22.724 92.7883 22.4707 93.1486 22.1202L94.7652 23.8734C93.7816 25.0034 92.3402 25.5682 90.4414 25.5682C89.263 25.5682 88.2112 25.3344 87.3055 24.8766C86.4 24.4188 85.6987 23.7759 85.202 22.9578C84.7054 22.1397 84.4619 21.2143 84.4619 20.1721C84.4619 19.1299 84.7054 18.2241 85.1923 17.3961C85.6791 16.5682 86.3512 15.9254 87.1984 15.4676C88.0458 15.0098 89 14.776 90.0519 14.776C91.1035 14.776 92.0092 15 92.8369 15.4383C93.6648 15.8766 94.3173 16.5098 94.7945 17.3377C95.2716 18.1656 95.5053 19.1201 95.5053 20.2111C95.5053 20.25 95.4858 20.5228 95.447 21.0292ZM88.3378 17.6591C87.8704 18.0487 87.5879 18.5844 87.4808 19.2565H92.6422C92.5351 18.5942 92.2527 18.0682 91.7853 17.6688C91.3179 17.2695 90.7432 17.0747 90.0712 17.0747C89.3994 17.0747 88.8052 17.2695 88.3378 17.6591Z" fill="#5E00CC"/>
<path d="M99.5759 24.0097C98.5631 22.9675 98.0566 21.4772 98.0566 19.5292V11.7759H100.004V19.4513C100.004 22.3734 101.28 23.8344 103.841 23.8344C105.088 23.8344 106.042 23.4741 106.704 22.7532C107.367 22.0324 107.698 20.9318 107.698 19.4513V11.7759H109.587V19.5292C109.587 21.487 109.081 22.987 108.068 24.0194C107.055 25.0518 105.643 25.5682 103.822 25.5682C102.001 25.5682 100.589 25.0518 99.5759 24.0097Z" fill="black"/>
<path d="M121.468 15.6526C122.257 16.0909 122.881 16.7143 123.328 17.5032C123.777 18.2922 124 19.2078 124 20.25C124 21.2922 123.777 22.2077 123.328 23.0065C122.881 23.8051 122.257 24.4285 121.468 24.8668C120.68 25.3051 119.784 25.5292 118.781 25.5292C118.04 25.5292 117.359 25.3831 116.745 25.1006C116.132 24.8181 115.606 24.3992 115.177 23.8539V29.1915H113.308V15.0876H115.1V16.724C115.518 16.1493 116.044 15.7207 116.677 15.4286C117.31 15.1363 118.011 14.9902 118.781 14.9902C119.784 14.9902 120.68 15.2143 121.468 15.6526ZM120.407 23.4351C120.933 23.133 121.352 22.7045 121.654 22.1494C121.955 21.5941 122.111 20.961 122.111 20.25C122.111 19.5389 121.955 18.9058 121.654 18.3506C121.352 17.7954 120.933 17.3766 120.407 17.0747C119.881 16.7727 119.287 16.6266 118.625 16.6266C117.963 16.6266 117.388 16.7824 116.862 17.0844C116.336 17.3863 115.917 17.8149 115.615 18.3604C115.314 18.9058 115.158 19.5389 115.158 20.25C115.158 20.961 115.304 21.5941 115.606 22.1494C115.908 22.7045 116.317 23.133 116.852 23.4351C117.388 23.7369 117.972 23.8929 118.625 23.8929C119.277 23.8929 119.881 23.7369 120.407 23.4351Z" fill="black"/>
<path d="M15.9986 38.6215L1.56084 30.342C0.585315 29.7576 0 28.7835 0 27.7121V11.2504C0 10.1789 0.585315 9.20489 1.56084 8.62045L14.828 1.12017L15.9986 0.438327C16.9741 -0.146109 18.1448 -0.146109 19.0227 0.438327L33.558 8.71784C34.5336 9.30228 35.1189 10.2763 35.1189 11.3478V27.8094C35.1189 28.881 34.5336 29.8549 33.558 30.4395L19.0227 38.719C18.1448 39.1085 16.9741 39.1085 15.9986 38.6215Z" fill="#5E00CC"/>
<path d="M26.7292 21.6728H28.6802C28.8753 21.6728 28.9729 21.5754 28.9729 21.3806V17.874C28.9729 17.5818 28.7778 17.387 28.4851 17.387H26.7292C26.5341 17.387 26.4365 17.4844 26.4365 17.6792V21.3806C26.4365 21.5754 26.5341 21.6728 26.7292 21.6728Z" fill="url(#paint5_linear_157_57)"/>
<path d="M21.7544 24.8872H23.4128C23.6079 24.8872 23.803 24.6924 23.803 24.4977V14.6596C23.803 14.3674 23.6079 14.1726 23.3152 14.1726H21.7544C21.5594 14.1726 21.3643 14.3674 21.3643 14.5622V24.4002C21.3643 24.6924 21.5594 24.8872 21.7544 24.8872Z" fill="url(#paint6_linear_157_57)"/>
<path d="M16.9743 31.0239H18.2425C18.6327 31.0239 18.9254 30.7316 18.9254 30.342V8.52306C18.9254 8.23084 18.7303 8.03601 18.4376 8.03601H17.0719C16.6817 8.03601 16.389 8.32823 16.389 8.71786V30.4395C16.2915 30.7316 16.5841 31.0239 16.9743 31.0239Z" fill="url(#paint7_linear_157_57)"/>
<path d="M11.7065 26.1536H13.2674C13.56 26.1536 13.7551 25.9586 13.7551 25.6666V13.3933C13.7551 13.1011 13.56 12.9063 13.2674 12.9063H11.7065C11.4139 12.9063 11.2188 13.1011 11.2188 13.3933V25.7639C11.2188 25.9586 11.4139 26.1536 11.7065 26.1536Z" fill="url(#paint8_linear_157_57)"/>
<path d="M6.43817 22.2573H8.38921C8.58432 22.2573 8.68187 22.1598 8.68187 21.965V17.387C8.68187 17.0948 8.48677 16.9 8.19411 16.9H6.43817C6.24306 16.9 6.14551 16.9974 6.14551 17.1922V21.965C6.14551 22.0625 6.24306 22.2573 6.43817 22.2573Z" fill="url(#paint9_linear_157_57)"/>
</g>
<defs>
<linearGradient id="paint0_linear_157_57" x1="27.1972" y1="18.0284" x2="27.2199" y2="21.1261" gradientUnits="userSpaceOnUse">
<stop stop-color="#5E00CC"/>
<stop offset="1" stop-color="#B16FFF"/>
</linearGradient>
<linearGradient id="paint1_linear_157_57" x1="22.1025" y1="15.7772" x2="22.2497" y2="23.519" gradientUnits="userSpaceOnUse">
<stop stop-color="#5E00CC"/>
<stop offset="1" stop-color="#B16FFF"/>
</linearGradient>
<linearGradient id="paint2_linear_157_57" x1="17.1434" y1="11.4794" x2="17.7894" y2="28.0701" gradientUnits="userSpaceOnUse">
<stop stop-color="#5E00CC"/>
<stop offset="1" stop-color="#B16FFF"/>
</linearGradient>
<linearGradient id="paint3_linear_157_57" x1="11.995" y1="14.8903" x2="12.2113" y2="24.4606" gradientUnits="userSpaceOnUse">
<stop stop-color="#5E00CC"/>
<stop offset="1" stop-color="#B16FFF"/>
</linearGradient>
<linearGradient id="paint4_linear_157_57" x1="6.93052" y1="17.7019" x2="6.96593" y2="21.5739" gradientUnits="userSpaceOnUse">
<stop stop-color="#5E00CC"/>
<stop offset="1" stop-color="#B16FFF"/>
</linearGradient>
<linearGradient id="paint5_linear_157_57" x1="27.2239" y1="18.029" x2="27.2466" y2="21.1268" gradientUnits="userSpaceOnUse">
<stop stop-color="#D9AFFF"/>
<stop offset="1" stop-color="white"/>
</linearGradient>
<linearGradient id="paint6_linear_157_57" x1="22.1214" y1="15.7778" x2="22.2682" y2="23.5198" gradientUnits="userSpaceOnUse">
<stop stop-color="#D9AFFF"/>
<stop offset="1" stop-color="white"/>
</linearGradient>
<linearGradient id="paint7_linear_157_57" x1="17.1633" y1="11.4798" x2="17.8083" y2="28.0712" gradientUnits="userSpaceOnUse">
<stop stop-color="#D9AFFF"/>
<stop offset="1" stop-color="white"/>
</linearGradient>
<linearGradient id="paint8_linear_157_57" x1="12.0061" y1="14.8909" x2="12.2221" y2="24.4615" gradientUnits="userSpaceOnUse">
<stop stop-color="#D9AFFF"/>
<stop offset="1" stop-color="white"/>
</linearGradient>
<linearGradient id="paint9_linear_157_57" x1="6.93284" y1="17.7025" x2="6.96818" y2="21.5747" gradientUnits="userSpaceOnUse">
<stop stop-color="#D9AFFF"/>
<stop offset="1" stop-color="white"/>
</linearGradient>
<clipPath id="clip0_157_57">
<rect width="124" height="39" fill="white"/>
</clipPath>
</defs>
</svg>
