<svg width="159" height="40" viewBox="0 0 159 40" fill="none" xmlns="http://www.w3.org/2000/svg">
    <path
        d="M16.4264 39.6114L1.60258 31.1211C0.600967 30.5211 0 29.5211 0 28.421V11.5404C0 10.4404 0.600967 9.44034 1.60258 8.84032L15.2245 1.15004L16.4264 0.450016C17.428 -0.150005 18.63 -0.150005 19.5314 0.450016L34.4554 8.94033C35.457 9.54035 36.058 10.5404 36.058 11.6404V28.521C36.058 29.6211 35.457 30.6211 34.4554 31.2211L19.5314 39.7114C18.63 40.1115 17.428 40.1115 16.4264 39.6114Z"
        fill="#2E3046" />
    <path
        d="M7.31176 16.5H5.50886C5.23227 16.5 5.00806 16.7239 5.00806 17V23.0002C5.00806 23.2764 5.23227 23.5003 5.50886 23.5003H7.31176C7.58835 23.5003 7.81257 23.2764 7.81257 23.0002V17C7.81257 16.7239 7.58835 16.5 7.31176 16.5Z"
        fill="white" />
    <path
        d="M13.1211 12.9995H11.3182C11.0416 12.9995 10.8174 13.2234 10.8174 13.4995V26.5C10.8174 26.7762 11.0416 27 11.3182 27H13.1211C13.3977 27 13.6219 26.7762 13.6219 26.5V13.4995C13.6219 13.2234 13.3977 12.9995 13.1211 12.9995Z"
        fill="white" />
    <path
        d="M24.7397 14.5005H22.9368C22.6603 14.5005 22.436 14.7244 22.436 15.0005V25.0009C22.436 25.277 22.6603 25.5009 22.9368 25.5009H24.7397C25.0163 25.5009 25.2405 25.277 25.2405 25.0009V15.0005C25.2405 14.7244 25.0163 14.5005 24.7397 14.5005Z"
        fill="white" />
    <path
        d="M18.9304 32.0014H17.1275C16.8471 32.0014 16.6267 31.4613 16.6267 30.8013V9.20053C16.6267 8.54051 16.8471 8.00049 17.1275 8.00049H18.9304C19.2109 8.00049 19.4312 8.54051 19.4312 9.20053V30.8013C19.4312 31.4613 19.2109 32.0014 18.9304 32.0014Z"
        fill="white" />
    <path
        d="M30.5491 17.4995H28.7462C28.4696 17.4995 28.2454 17.7234 28.2454 17.9995V21.9997C28.2454 22.2758 28.4696 22.4997 28.7462 22.4997H30.5491C30.8257 22.4997 31.0499 22.2758 31.0499 21.9997V17.9995C31.0499 17.7234 30.8257 17.4995 30.5491 17.4995Z"
        fill="white" />
    <path
        d="M58.0788 11.8248C59.2181 12.3373 60.107 13.0748 60.7204 14.0248C61.3339 14.9748 61.6469 16.0998 61.6469 17.3998C61.6469 18.6998 61.3339 19.7998 60.7204 20.7623C60.107 21.7248 59.2181 22.4498 58.0788 22.9623C56.9395 23.4748 55.5874 23.7248 54.0349 23.7248H50.5044V28.5498H46.448V11.0498H54.0349C55.5874 11.0498 56.9395 11.3123 58.0788 11.8248ZM56.5764 19.6373C57.2149 19.1123 57.5279 18.3623 57.5279 17.3998C57.5279 16.4373 57.2149 15.6623 56.5764 15.1373C55.9379 14.6123 55.0115 14.3498 53.7971 14.3498H50.4919V20.4248H53.7971C55.0115 20.4248 55.9379 20.1623 56.5764 19.6373Z"
        fill="#2E3046" />
    <path
        d="M77.8098 15.1001V28.5501H74.104V26.9501C73.5907 27.5376 72.9647 27.9751 72.251 28.2876C71.5374 28.6001 70.7612 28.7501 69.9224 28.7501C68.1571 28.7501 66.7549 28.2376 65.7158 27.2251C64.6766 26.2126 64.1633 24.7001 64.1633 22.7001V15.1001H68.0695V22.1251C68.0695 24.2876 68.9834 25.3751 70.7988 25.3751C71.7377 25.3751 72.4889 25.0751 73.0523 24.4626C73.6157 23.8501 73.9036 22.9501 73.9036 21.7501V15.1001H77.8098Z"
        fill="#2E3046" />
    <path d="M81.1902 10H85.0963V28.55H81.1902V10Z" fill="#2E3046" />
    <path
        d="M89.741 28.3374C88.6769 28.0624 87.8255 27.7124 87.187 27.2999L88.4891 24.4999C89.09 24.8874 89.8161 25.1999 90.6675 25.4374C91.5188 25.6749 92.3576 25.7999 93.1714 25.7999C94.824 25.7999 95.6503 25.3874 95.6503 24.5749C95.6503 24.1874 95.425 23.9124 94.9743 23.7499C94.5235 23.5874 93.835 23.4374 92.896 23.3249C91.7943 23.1624 90.8803 22.9624 90.1667 22.7499C89.4531 22.5374 88.8271 22.1499 88.3013 21.5999C87.7754 21.0499 87.5125 20.2624 87.5125 19.2499C87.5125 18.3999 87.7629 17.6499 88.2512 16.9874C88.7395 16.3249 89.4656 15.8124 90.4046 15.4499C91.3435 15.0874 92.4578 14.8999 93.7473 14.8999C94.6988 14.8999 95.6503 14.9999 96.5893 15.2124C97.5283 15.4249 98.317 15.7124 98.9305 16.0749L97.6284 18.8499C96.4391 18.1874 95.1495 17.8499 93.7473 17.8499C92.9085 17.8499 92.2825 17.9624 91.8694 18.1999C91.4562 18.4374 91.2434 18.7374 91.2434 19.0999C91.2434 19.5124 91.4687 19.8124 91.9195 19.9749C92.3702 20.1374 93.0838 20.2999 94.0728 20.4499C95.1746 20.6374 96.076 20.8249 96.7771 21.0374C97.4782 21.2499 98.0917 21.6249 98.605 22.1749C99.1183 22.7249 99.3812 23.4874 99.3812 24.4749C99.3812 25.3124 99.1308 26.0499 98.63 26.6999C98.1292 27.3499 97.4031 27.8499 96.4391 28.2124C95.475 28.5749 94.3358 28.7499 93.0212 28.7499C91.9069 28.7499 90.8052 28.6124 89.741 28.3374Z"
        fill="#2E3046" />
    <path
        d="M114.643 22.9249H104.452C104.639 23.7624 105.065 24.4124 105.754 24.8999C106.442 25.3874 107.294 25.6249 108.308 25.6249C109.009 25.6249 109.635 25.5249 110.173 25.3124C110.712 25.0999 111.225 24.7749 111.688 24.3249L113.766 26.5749C112.502 28.0249 110.649 28.7499 108.208 28.7499C106.693 28.7499 105.341 28.4499 104.176 27.8624C103.012 27.2749 102.111 26.4499 101.472 25.3999C100.834 24.3499 100.521 23.1624 100.521 21.8249C100.521 20.4874 100.833 19.3249 101.459 18.2624C102.085 17.1999 102.949 16.3749 104.039 15.7874C105.128 15.1999 106.355 14.8999 107.707 14.8999C109.059 14.8999 110.223 15.1874 111.287 15.7499C112.352 16.3124 113.19 17.1249 113.804 18.1874C114.417 19.2499 114.718 20.4749 114.718 21.8749C114.718 21.9249 114.693 22.2749 114.643 22.9249ZM105.503 18.5999C104.902 19.0999 104.539 19.7874 104.402 20.6499H111.037C110.899 19.7999 110.536 19.1249 109.935 18.6124C109.334 18.0999 108.596 17.8499 107.732 17.8499C106.868 17.8499 106.104 18.0999 105.503 18.5999Z"
        fill="#2E3046" />
    <path
        d="M119.288 26.7748C117.898 25.3873 117.197 23.4123 117.197 20.8498V11.0498H121.253V20.6998C121.253 23.8373 122.555 25.3998 125.159 25.3998C126.424 25.3998 127.4 25.0248 128.064 24.2623C128.727 23.4998 129.065 22.3123 129.065 20.6998V11.0498H133.072V20.8498C133.072 23.4123 132.371 25.3873 130.981 26.7748C129.591 28.1623 127.638 28.8498 125.134 28.8498C122.63 28.8498 120.677 28.1623 119.288 26.7748Z"
        fill="#2E3046" />
    <path
        d="M147.933 15.7624C148.959 16.3374 149.761 17.1499 150.349 18.1874C150.937 19.2249 151.225 20.4374 151.225 21.8249C151.225 23.2124 150.937 24.4249 150.349 25.4624C149.761 26.4999 148.959 27.3124 147.933 27.8874C146.906 28.4624 145.767 28.7499 144.515 28.7499C142.8 28.7499 141.447 28.2124 140.458 27.1249V33.3999H136.552V15.0999H140.283V16.6499C141.247 15.4874 142.662 14.8999 144.515 14.8999C145.767 14.8999 146.906 15.1874 147.933 15.7624ZM146.305 24.5374C146.944 23.8624 147.269 22.9624 147.269 21.8249C147.269 20.6874 146.944 19.7874 146.305 19.1124C145.667 18.4374 144.84 18.0999 143.839 18.0999C142.837 18.0999 142.011 18.4374 141.372 19.1124C140.734 19.7874 140.408 20.6874 140.408 21.8249C140.408 22.9624 140.734 23.8624 141.372 24.5374C142.011 25.2124 142.837 25.5499 143.839 25.5499C144.84 25.5499 145.667 25.2124 146.305 24.5374Z"
        fill="#2E3046" />
    <path
        d="M153.691 28.0873C153.228 27.6498 153.003 27.1123 153.003 26.4748C153.003 25.8373 153.228 25.3123 153.679 24.8873C154.13 24.4623 154.706 24.2498 155.407 24.2498C156.108 24.2498 156.684 24.4623 157.134 24.8873C157.585 25.3123 157.81 25.8373 157.81 26.4748C157.81 27.1123 157.585 27.6498 157.122 28.0873C156.659 28.5248 156.095 28.7498 155.407 28.7498C154.718 28.7498 154.155 28.5248 153.691 28.0873ZM153.078 11.0498H157.735L156.959 22.4748H153.854L153.078 11.0498Z"
        fill="#2E3046" />
    <path
        d="M153.003 26.475C153.003 27.1125 153.228 27.65 153.691 28.0875C154.155 28.525 154.718 28.75 155.407 28.75C156.095 28.75 156.659 28.525 157.122 28.0875C157.585 27.65 157.81 27.1125 157.81 26.475C157.81 25.8375 157.585 25.3125 157.134 24.8875C156.684 24.4625 156.108 24.25 155.407 24.25C154.706 24.25 154.13 24.4625 153.679 24.8875C153.228 25.3125 153.003 25.8375 153.003 26.475Z"
        fill="#D60040" />
</svg>

    