<svg width="37" height="40" viewBox="0 0 37 40" fill="none" xmlns="http://www.w3.org/2000/svg">
    <path
        d="M16.5255 39.6115L1.61225 31.1213C0.604591 30.521 0 29.521 0 28.421V11.5404C0 10.4404 0.604591 9.44035 1.61225 8.84033L15.3163 1.15004L16.5255 0.450017C17.5332 -0.150006 18.7424 -0.150006 19.6492 0.450017L34.6633 8.94032C35.6709 9.54035 36.2754 10.5404 36.2754 11.6404V28.521C36.2754 29.621 35.6709 30.621 34.6633 31.2213L19.6492 39.7115C18.7424 40.1115 17.5332 40.1115 16.5255 39.6115Z"
        fill="#131420" />
    <path
        d="M8.43672 16.5H6.62295C6.3447 16.5 6.11914 16.7238 6.11914 17V23.0002C6.11914 23.2764 6.3447 23.5002 6.62295 23.5002H8.43672C8.715 23.5002 8.94056 23.2764 8.94056 23.0002V17C8.94056 16.7238 8.715 16.5 8.43672 16.5Z"
        fill="white" />
    <path
        d="M13.7405 12.9995H11.9267C11.6484 12.9995 11.4229 13.2234 11.4229 13.4995V26.5C11.4229 26.7763 11.6484 27 11.9267 27H13.7405C14.0187 27 14.2443 26.7763 14.2443 26.5V13.4995C14.2443 13.2234 14.0187 12.9995 13.7405 12.9995Z"
        fill="white" />
    <path
        d="M24.3489 13.9639H22.535C22.2567 13.9639 22.0312 14.1878 22.0312 14.4639V25.5368C22.0312 25.8128 22.2567 26.0368 22.535 26.0368H24.3489C24.6271 26.0368 24.8526 25.8128 24.8526 25.5368V14.4639C24.8526 14.1878 24.6271 13.9639 24.3489 13.9639Z"
        fill="white" />
    <path
        d="M19.0705 8.01318H17.2568C16.9785 8.01318 16.7529 8.23705 16.7529 8.5132V31.165C16.7529 31.4412 16.9785 31.6652 17.2568 31.6652H19.0705C19.3488 31.6652 19.5743 31.4412 19.5743 31.165V8.5132C19.5743 8.23705 19.3488 8.01318 19.0705 8.01318Z"
        fill="white" />
    <path
        d="M29.6526 16.9634H27.8386C27.5605 16.9634 27.335 17.1872 27.335 17.4634V22.5359C27.335 22.8121 27.5605 23.036 27.8386 23.036H29.6526C29.9307 23.036 30.1563 22.8121 30.1563 22.5359V17.4634C30.1563 17.1872 29.9307 16.9634 29.6526 16.9634Z"
        fill="#D60040" />
</svg>