<svg width="124" height="40" viewBox="0 0 124 40" fill="none" xmlns="http://www.w3.org/2000/svg">
<g clip-path="url(#clip0_151_2)">
<mask id="mask0_151_2" style="mask-type:luminance" maskUnits="userSpaceOnUse" x="0" y="0" width="124" height="40">
<path d="M124 0H0V40H124V0Z" fill="white"/>
</mask>
<g mask="url(#mask0_151_2)">
<mask id="mask1_151_2" style="mask-type:luminance" maskUnits="userSpaceOnUse" x="0" y="0" width="124" height="40">
<path d="M124 0H0V40H124V0Z" fill="white"/>
</mask>
<g mask="url(#mask1_151_2)">
<path d="M16.41 39.6002L1.6 31.1002C0.6 30.5002 0 29.5002 0 28.4002V11.5002C0 10.4002 0.6 9.4002 1.6 8.8002L15.21 1.1002L16.41 0.400195C17.41 -0.199805 18.61 -0.199805 19.51 0.400195L34.42 8.9002C35.42 9.5002 36.02 10.5002 36.02 11.6002V28.5002C36.02 29.6002 35.42 30.6002 34.42 31.2002L19.51 39.7002C18.61 40.1002 17.41 40.1002 16.41 39.6002Z" fill="#5E00CC"/>
<path d="M27.4201 22.2003H29.4201C29.6201 22.2003 29.7201 22.1003 29.7201 21.9003V18.3003C29.7201 18.0003 29.5201 17.8003 29.2201 17.8003H27.4201C27.2201 17.8003 27.1201 17.9003 27.1201 18.1003V21.9003C27.1201 22.1003 27.2201 22.2003 27.4201 22.2003Z" fill="url(#paint0_linear_151_2)"/>
<path d="M22.3199 25.5H24.0199C24.2199 25.5 24.4199 25.3 24.4199 25.1V15C24.4199 14.7 24.2199 14.5 23.9199 14.5H22.3199C22.1199 14.5 21.9199 14.7 21.9199 14.9V25C21.9199 25.3 22.1199 25.5 22.3199 25.5Z" fill="url(#paint1_linear_151_2)"/>
<path d="M17.4099 31.8002H18.7099C19.1099 31.8002 19.4099 31.5002 19.4099 31.1002V8.7002C19.4099 8.4002 19.2099 8.2002 18.9099 8.2002H17.5099C17.1099 8.2002 16.8099 8.5002 16.8099 8.9002V31.2002C16.7099 31.5002 17.0099 31.8002 17.4099 31.8002Z" fill="url(#paint2_linear_151_2)"/>
<path d="M12.0098 26.8002H13.6098C13.9098 26.8002 14.1098 26.6002 14.1098 26.3002V13.7002C14.1098 13.4002 13.9098 13.2002 13.6098 13.2002H12.0098C11.7098 13.2002 11.5098 13.4002 11.5098 13.7002V26.4002C11.5098 26.6002 11.7098 26.8002 12.0098 26.8002Z" fill="url(#paint3_linear_151_2)"/>
<path d="M6.61006 22.8003H8.61006C8.81006 22.8003 8.91006 22.7003 8.91006 22.5003V17.8003C8.91006 17.5003 8.71006 17.3003 8.41006 17.3003H6.61006C6.41006 17.3003 6.31006 17.4003 6.31006 17.6003V22.5003C6.31006 22.6003 6.41006 22.8003 6.61006 22.8003Z" fill="url(#paint4_linear_151_2)"/>
<path d="M52.9402 13.5001C51.8402 12.6001 50.3402 12.1001 48.4402 12.1001H42.7402V26.6001H45.2402V22.3001H48.4402C50.3402 22.3001 51.8402 21.8001 52.9402 20.9001C54.0402 20.0001 54.6402 18.7001 54.6402 17.1001C54.6402 15.5001 54.0402 14.4001 52.9402 13.5001ZM52.0402 17.2001C52.0402 18.1001 51.7402 18.8001 51.1402 19.3001C50.5402 19.8001 49.6402 20.1001 48.3402 20.1001H45.1402V14.3001H48.3402C49.5402 14.3001 50.4402 14.6001 51.1402 15.1001C51.7402 15.6001 52.0402 16.3001 52.0402 17.2001Z" fill="#5E00CC"/>
<path d="M64.75 21.2004C64.75 22.3004 64.45 23.1004 63.95 23.6004C63.45 24.2004 62.65 24.4004 61.75 24.4004C60.95 24.4004 60.25 24.2004 59.85 23.7004C59.45 23.2004 59.15 22.5004 59.15 21.5004V15.4004H56.75V21.8004C56.75 23.4004 57.15 24.6004 58.05 25.4004C58.95 26.2004 60.05 26.6004 61.55 26.6004C62.35 26.6004 63.05 26.4004 63.75 26.1004C64.15 25.9004 64.55 25.6004 64.95 25.3004V26.5004H67.25V15.5004H64.85V21.2004H64.75Z" fill="#5E00CC"/>
<path d="M72.5597 11.2002H70.1597V26.6002H72.5597V11.2002Z" fill="#5E00CC"/>
<path d="M81.97 20.6003C81.47 20.4003 80.77 20.3003 79.87 20.1003C79.27 20.0003 78.77 19.9003 78.37 19.8003C78.07 19.7003 77.77 19.6003 77.57 19.4003C77.37 19.2003 77.27 19.0003 77.27 18.8003C77.27 18.4003 77.47 18.2003 77.77 17.9003C78.17 17.7003 78.77 17.5003 79.47 17.5003C80.57 17.5003 81.57 17.8003 82.37 18.3003L82.57 18.4003L83.67 16.4003L83.47 16.3003C82.97 16.0003 82.37 15.7003 81.67 15.6003C80.97 15.4003 80.17 15.3003 79.47 15.3003C78.07 15.3003 76.97 15.6003 76.07 16.2003C75.17 16.8003 74.77 17.7003 74.77 18.7003C74.77 19.5003 74.97 20.2003 75.37 20.6003C75.77 21.0003 76.27 21.4003 76.87 21.6003C77.47 21.8003 78.17 21.9003 78.97 22.1003C79.57 22.2003 80.07 22.3003 80.37 22.4003C80.67 22.5003 80.97 22.6003 81.17 22.8003C81.37 22.9003 81.37 23.1003 81.37 23.4003C81.37 23.7003 81.37 24.6003 79.07 24.6003C78.37 24.6003 77.77 24.5003 77.07 24.3003C76.47 24.1003 75.87 23.9003 75.47 23.5003L75.27 23.3003L74.27 25.3003L74.47 25.4003C74.97 25.8003 75.57 26.1003 76.47 26.3003C77.27 26.5003 78.17 26.7003 79.07 26.7003C80.57 26.7003 81.67 26.4003 82.57 25.8003C83.47 25.2003 83.87 24.3003 83.87 23.3003C83.87 22.5003 83.67 21.9003 83.27 21.4003C82.97 21.1003 82.57 20.8003 81.97 20.6003Z" fill="#5E00CC"/>
<path d="M95.7799 18.2C95.2799 17.3 94.6799 16.7 93.7799 16.2C92.9799 15.7 91.9799 15.5 90.9799 15.5C89.8799 15.5 88.9799 15.7 88.0799 16.2C87.2799 16.7 86.5799 17.4 86.0799 18.2C85.5799 19.1 85.3799 20 85.3799 21.1C85.3799 22.2 85.6799 23.2 86.0799 24C86.5799 24.9 87.2799 25.6 88.1799 26C89.0799 26.5 90.0799 26.7 91.2799 26.7C92.1799 26.7 92.9799 26.5 93.7799 26.2C94.4799 25.9 95.1799 25.4 95.6799 24.8L95.7799 24.6L94.3799 23L94.1799 23.2C93.4799 24 92.4799 24.4 91.2799 24.4C90.2799 24.4 89.4799 24.1 88.7799 23.6C88.1799 23.1 87.8799 22.5 87.6799 21.8H96.2899V21C96.4899 20 96.2899 19 95.7899 18.2H95.7799ZM87.8699 20.1C87.9699 19.4 88.3699 18.8 88.8699 18.3C89.4699 17.8 90.1699 17.5 90.9699 17.5C91.8699 17.5 92.5699 17.8 93.0699 18.3C93.5699 18.8 93.8699 19.4 94.0699 20.1H87.8599H87.8699Z" fill="#5E00CC"/>
<path d="M100.06 25.37C99.1602 24.48 98.7002 23.22 98.7002 21.59V15.5H101.81V21.49C101.81 23.25 102.51 24.12 103.9 24.12C105.29 24.12 105.97 23.24 105.97 21.49V15.5H109.03V21.59C109.03 23.22 108.58 24.48 107.67 25.37C106.77 26.26 105.5 26.7 103.87 26.7C102.24 26.7 100.97 26.26 100.07 25.37H100.06Z" fill="#2E3046"/>
<path d="M118.73 15.9902C119.46 16.3202 120.03 16.7902 120.42 17.4002C120.82 18.0102 121.02 18.7302 121.02 19.5602C121.02 20.3902 120.82 21.1002 120.42 21.7102C120.02 22.3202 119.46 22.7802 118.73 23.1102C118 23.4402 117.13 23.6002 116.14 23.6002H114.23V26.4702H111.12V15.4902H116.14C117.13 15.4902 118 15.6502 118.73 15.9802V15.9902ZM117.4 20.7502C117.72 20.4702 117.89 20.0802 117.89 19.5702C117.89 19.0602 117.73 18.6602 117.4 18.3802C117.08 18.1002 116.59 17.9602 115.96 17.9602H114.23V21.1802H115.96C116.6 21.1802 117.08 21.0402 117.4 20.7602V20.7502Z" fill="#2E3046"/>
</g>
</g>
</g>
<defs>
<linearGradient id="paint0_linear_151_2" x1="28.4101" y1="18.4503" x2="28.4301" y2="21.6303" gradientUnits="userSpaceOnUse">
<stop stop-color="#D9AFFF"/>
<stop offset="1" stop-color="white"/>
</linearGradient>
<linearGradient id="paint1_linear_151_2" x1="23.0999" y1="16.14" x2="23.2499" y2="24.09" gradientUnits="userSpaceOnUse">
<stop stop-color="#D9AFFF"/>
<stop offset="1" stop-color="white"/>
</linearGradient>
<linearGradient id="paint2_linear_151_2" x1="17.7799" y1="11.7302" x2="18.4499" y2="28.7602" gradientUnits="userSpaceOnUse">
<stop stop-color="#D9AFFF"/>
<stop offset="1" stop-color="white"/>
</linearGradient>
<linearGradient id="paint3_linear_151_2" x1="12.6998" y1="15.2302" x2="12.9198" y2="25.0502" gradientUnits="userSpaceOnUse">
<stop stop-color="#D9AFFF"/>
<stop offset="1" stop-color="white"/>
</linearGradient>
<linearGradient id="paint4_linear_151_2" x1="7.59006" y1="18.1203" x2="7.62006" y2="22.0903" gradientUnits="userSpaceOnUse">
<stop stop-color="#D9AFFF"/>
<stop offset="1" stop-color="white"/>
</linearGradient>
<clipPath id="clip0_151_2">
<rect width="124" height="40" fill="white"/>
</clipPath>
</defs>
</svg>
