<svg width="100" height="100" viewBox="0 0 100 100" fill="none"
  xmlns="http://www.w3.org/2000/svg">
  <g clip-path="url(#clip0_1208_2097)">
    <path fill-rule="evenodd" clip-rule="evenodd" d="M50 89C45.586 89 42 85.414 42 81C42 76.584 45.586 73 50 73C54.416 73 58 76.584 58 81C58 85.414 54.416 89 50 89Z" fill="black"/>
    <path fill-rule="evenodd" clip-rule="evenodd" d="M50 27C45.586 27 42 23.414 42 19C42 14.584 45.586 11 50 11C54.416 11 58 14.584 58 19C58 23.414 54.416 27 50 27Z" fill="black"/>
    <path fill-rule="evenodd" clip-rule="evenodd" d="M50 58C45.586 58 42 54.414 42 50C42 45.584 45.586 42 50 42C54.416 42 58 45.584 58 50C58 54.414 54.416 58 50 58Z" fill="black"/>
  </g>
  <defs>
    <clipPath id="clip0_1208_2097">
      <rect width="100" height="100" fill="white" transform="matrix(0 1 -1 0 100 0)"/>
    </clipPath>
  </defs>
</svg>
