<svg width="64" height="64" viewBox="0 0 64 64" fill="none" xmlns="http://www.w3.org/2000/svg">
<path d="M34.3878 4.77588C50.746 4.77588 63.9998 18.0296 63.9998 34.3878C63.9998 50.746 50.746 63.9998 34.3878 63.9998C18.0296 63.9998 4.77588 50.746 4.77588 34.3878C4.77588 18.0296 18.0296 4.77588 34.3878 4.77588Z" fill="#000000"/>
<path d="M60.179 30.5673C60.179 46.9255 46.8058 60.1792 30.567 60.1792C14.2088 60.1792 0.955078 46.9255 0.955078 30.5673C0.955078 14.3285 14.2088 0.955322 30.567 0.955322C46.8058 0.955322 60.179 14.3285 60.179 30.5673ZM27.1043 46.3285L49.0745 24.3583C49.7909 23.6419 49.7909 22.3285 49.0745 21.612L46.3282 18.9852C45.6118 18.1494 44.4178 18.1494 43.7013 18.9852L25.7909 36.8956L17.3133 28.5374C16.5969 27.7016 15.4028 27.7016 14.6864 28.5374L11.9402 31.1643C11.2237 31.8807 11.2237 33.1941 11.9402 33.9105L24.3581 46.3285C25.0745 47.0449 26.3879 47.0449 27.1043 46.3285Z" fill="white"/>
<path fill-rule="evenodd" clip-rule="evenodd" d="M45.6339 19.6427L45.6031 19.6067C45.2679 19.2157 44.7619 19.2157 44.4268 19.6067L44.4029 19.6346L25.7958 38.2416L16.6143 29.1894L16.5882 29.159C16.253 28.7679 15.747 28.7679 15.4118 29.159L15.381 29.1949L12.6099 31.8456C12.2724 32.1911 12.2743 32.8936 12.6157 33.235L25.0337 45.6529C25.377 45.9963 26.0857 45.9963 26.429 45.6529L48.3992 23.6828C48.7406 23.3414 48.7426 22.6389 48.405 22.2933L45.6339 19.6427ZM49.0746 21.6119C49.791 22.3284 49.791 23.6418 49.0746 24.3582L27.1045 46.3284C26.3881 47.0448 25.0746 47.0448 24.3582 46.3284L11.9403 33.9104C11.2239 33.194 11.2239 31.8806 11.9403 31.1642L14.6866 28.5373C15.403 27.7015 16.597 27.7015 17.3134 28.5373L25.791 36.8955L43.7015 18.9851C44.4179 18.1493 45.6119 18.1493 46.3284 18.9851L49.0746 21.6119ZM61.1343 30.5672C61.1343 47.4554 47.331 61.1343 30.5672 61.1343C13.6814 61.1343 0 47.4529 0 30.5672C0 13.8033 13.6789 0 30.5672 0C47.3335 0 61.1343 13.8008 61.1343 30.5672ZM30.5672 60.1791C46.806 60.1791 60.1791 46.9254 60.1791 30.5672C60.1791 14.3284 46.806 0.955224 30.5672 0.955224C14.209 0.955224 0.955224 14.3284 0.955224 30.5672C0.955224 46.9254 14.209 60.1791 30.5672 60.1791Z" fill="#000000"/>
</svg>
