<svg width="14" height="13" viewBox="0 0 14 13" fill="none" xmlns="http://www.w3.org/2000/svg">
    <path
        d="M6.125 1.91016V11.5352C6.125 12.2734 5.52344 12.8477 4.8125 12.8477H2.1875C1.44922 12.8477 0.875 12.2734 0.875 11.5352V1.91016C0.875 1.19922 1.44922 0.597656 2.1875 0.597656H4.8125C5.52344 0.597656 6.125 1.19922 6.125 1.91016ZM4.8125 11.3711V2.07422C4.8125 1.99219 4.73047 1.91016 4.64844 1.91016H2.35156C2.24219 1.91016 2.1875 1.99219 2.1875 2.07422V11.3711C2.1875 11.4805 2.24219 11.5352 2.35156 11.5352H4.64844C4.73047 11.5352 4.8125 11.4805 4.8125 11.3711ZM13.125 1.91016V11.5352C13.125 12.2734 12.5234 12.8477 11.8125 12.8477H9.1875C8.44922 12.8477 7.875 12.2734 7.875 11.5352V1.91016C7.875 1.19922 8.44922 0.597656 9.1875 0.597656H11.8125C12.5234 0.597656 13.125 1.19922 13.125 1.91016ZM11.8125 11.3711V2.07422C11.8125 1.99219 11.7305 1.91016 11.6484 1.91016H9.35156C9.24219 1.91016 9.1875 1.99219 9.1875 2.07422V11.3711C9.1875 11.4805 9.24219 11.5352 9.35156 11.5352H11.6484C11.7305 11.5352 11.8125 11.4805 11.8125 11.3711Z"
        fill="#5E00CC" />
</svg>
    