<svg width="14" height="14" viewBox="0 0 14 14" fill="none" xmlns="http://www.w3.org/2000/svg">
    <path
        d="M6.53125 12.754C3.10938 7.83695 2.5 7.32183 2.5 5.49549C2.5 3.01354 4.49219 0.999878 7 0.999878C9.48438 0.999878 11.5 3.01354 11.5 5.49549C11.5 7.32183 10.8672 7.83695 7.44531 12.754C7.23438 13.0818 6.74219 13.0818 6.53125 12.754ZM7 7.36866C8.03125 7.36866 8.875 6.54915 8.875 5.49549C8.875 4.46524 8.03125 3.62232 7 3.62232C5.94531 3.62232 5.125 4.46524 5.125 5.49549C5.125 6.54915 5.94531 7.36866 7 7.36866Z"
        fill="#8386A5" />
</svg>