<svg width="24" height="24" viewBox="0 0 24 24" fill="none" xmlns="http://www.w3.org/2000/svg">
    <path
        d="M15.0039 13.9375C17.6055 13.9375 19.75 16.082 19.75 18.6836V19.5625C19.75 20.5117 18.9766 21.25 18.0625 21.25H5.6875C4.73828 21.25 4 20.5117 4 19.5625V18.6836C4 16.082 6.10938 13.9375 8.71094 13.9375C9.73047 13.9375 10.1875 14.5 11.875 14.5C13.5273 14.5 13.9844 13.9375 15.0039 13.9375ZM18.0625 19.5625V18.6836C18.0625 16.9961 16.6914 15.625 15.0039 15.625C14.4766 15.625 13.668 16.1875 11.875 16.1875C10.0469 16.1875 9.23828 15.625 8.71094 15.625C7.02344 15.625 5.6875 16.9961 5.6875 18.6836V19.5625H18.0625ZM11.875 13.375C9.0625 13.375 6.8125 11.125 6.8125 8.3125C6.8125 5.53516 9.0625 3.25 11.875 3.25C14.6523 3.25 16.9375 5.53516 16.9375 8.3125C16.9375 11.125 14.6523 13.375 11.875 13.375ZM11.875 4.9375C10.0117 4.9375 8.5 6.48438 8.5 8.3125C8.5 10.1758 10.0117 11.6875 11.875 11.6875C13.7031 11.6875 15.25 10.1758 15.25 8.3125C15.25 6.48438 13.7031 4.9375 11.875 4.9375Z"
        fill="#000000" />
</svg>