<svg width="22" height="24" viewBox="0 0 22 24" fill="none" xmlns="http://www.w3.org/2000/svg">
    <path
        d="M10.0381 0.269588C10.6379 -0.0897866 11.3577 -0.0899388 11.8974 0.269588L20.8359 5.36529C21.4357 5.72494 21.7958 6.32419 21.7959 6.98346V17.1134L21.792 17.2364C21.7503 17.8469 21.3983 18.3953 20.8359 18.7325L11.8974 23.8272L11.6875 23.9054C11.2522 24.0397 10.7367 24.0348 10.2676 23.8653L10.0381 23.7677L1.15918 18.672C0.596903 18.3348 0.244955 17.7872 0.203125 17.1769L0.199219 17.0538V6.92291C0.199421 6.30487 0.515944 5.73955 1.0498 5.37506L1.15918 5.30475L9.31738 0.68951L10.0381 0.269588ZM10.3135 2.42389L10.3027 2.42975L2.19922 7.01373V16.963L10.9463 21.9825C10.9662 21.9898 10.9969 21.9991 11.0361 22.0001C11.0481 22.0004 11.0591 21.998 11.0683 21.9972L19.7959 17.0226V7.0733L10.9687 2.04205L10.3135 2.42389ZM11.5381 4.94537C11.718 4.9454 11.8379 5.06537 11.8379 5.24518V18.672C11.8379 18.9117 11.6579 19.0919 11.418 19.0919H10.6377C10.398 19.0917 10.2184 18.9113 10.2783 18.7315V5.36529C10.2783 5.12553 10.4583 4.94537 10.6982 4.94537H11.5381ZM8.3584 7.94244C8.53837 7.94244 8.6582 8.06242 8.6582 8.24225V15.795C8.6581 15.9747 8.53829 16.0948 8.3584 16.0948H7.39844C7.21855 16.0948 7.09863 15.9744 7.09863 15.8546V8.24225C7.09863 8.06247 7.21855 7.94251 7.39844 7.94244H8.3584ZM14.5381 8.72174C14.7178 8.72191 14.8379 8.84185 14.8379 9.02154V15.0753C14.8379 15.1952 14.7176 15.3155 14.5976 15.3155H13.5781C13.4582 15.3155 13.3379 15.1955 13.3379 15.0157V8.961C13.3381 8.84124 13.4583 8.72174 13.5781 8.72174H14.5381ZM5.23926 10.4005C5.41885 10.4007 5.53889 10.5199 5.53906 10.6993V13.5167C5.53906 13.6366 5.47838 13.6964 5.3584 13.6964H4.15918C4.0392 13.6964 3.97949 13.5766 3.97949 13.5167V10.5802C3.97949 10.4603 4.0392 10.4005 4.15918 10.4005H5.23926ZM17.7168 10.7003C17.8966 10.7003 18.0164 10.8195 18.0166 10.9991V13.1573C18.0166 13.2772 17.9568 13.337 17.8369 13.337H16.6367C16.5169 13.3369 16.457 13.2771 16.457 13.1573V10.88C16.457 10.7602 16.5169 10.7004 16.6367 10.7003H17.7168Z"
        fill="#8386A5" />
</svg>