<svg width="24" height="24" viewBox="0 0 24 24" fill="none" xmlns="http://www.w3.org/2000/svg">
    <g clip-path="url(#clip0_215_59)">
        <path
            d="M11.5527 1.12695C11.854 0.946411 12.1559 0.976625 12.3438 1.10156L12.373 1.12109L12.4033 1.13867L21.3223 6.22266C21.6493 6.41882 21.7969 6.70774 21.7969 6.9834V17.1133C21.7969 17.3885 21.65 17.6759 21.3242 17.8721L12.4629 22.9229C12.1997 23.0281 11.8167 23.0322 11.4971 22.877L2.66602 17.8086C2.34486 17.6126 2.20025 17.327 2.2002 17.0537V6.92285C2.20036 6.64863 2.3454 6.36103 2.66895 6.16504L10.8115 1.55957L10.8223 1.55371L11.542 1.13379L11.5527 1.12695Z"
            fill="white" stroke="#8386A5" stroke-width="2" />
        <path
            d="M17.638 13.3372H18.8378C18.9578 13.3372 19.0178 13.2772 19.0178 13.1573V10.9994C19.0178 10.8196 18.8978 10.6997 18.7178 10.6997H17.638C17.518 10.6997 17.458 10.7596 17.458 10.8795V13.1573C17.458 13.2772 17.518 13.3372 17.638 13.3372Z"
            fill="#8386A5" />
        <mask id="mask0_215_59" style="mask-type:luminance" maskUnits="userSpaceOnUse" x="17" y="10"
            width="3" height="4">
            <path
                d="M17.638 13.3372H18.8378C18.9578 13.3372 19.0178 13.2772 19.0178 13.1573V10.9994C19.0178 10.8196 18.8978 10.6997 18.7178 10.6997H17.638C17.518 10.6997 17.458 10.7596 17.458 10.8795V13.1573C17.458 13.2772 17.518 13.3372 17.638 13.3372Z"
                fill="white" />
        </mask>
        <g mask="url(#mask0_215_59)">
            <path
                d="M17.638 13.3372V15.3372H18.8378V13.3372V11.3372H17.638V13.3372ZM18.8378 13.3372V15.3372C19.2057 15.3372 19.849 15.244 20.3864 14.707C20.9241 14.1697 21.0178 13.526 21.0178 13.1573H19.0178H17.0178C17.0178 12.9086 17.0814 12.3548 17.5591 11.8774C18.0365 11.4004 18.5899 11.3372 18.8378 11.3372V13.3372ZM19.0178 13.1573H21.0178V10.9994H19.0178H17.0178V13.1573H19.0178ZM19.0178 10.9994H21.0178C21.0178 10.4545 20.8272 9.84525 20.3489 9.36734C19.8708 8.88958 19.2618 8.69971 18.7178 8.69971V10.6997V12.6997C18.3538 12.6997 17.8948 12.5698 17.5216 12.1969C17.1483 11.8239 17.0178 11.3645 17.0178 10.9994H19.0178ZM18.7178 10.6997V8.69971H17.638V10.6997V12.6997H18.7178V10.6997ZM17.638 10.6997V8.69971C17.2701 8.69971 16.6268 8.7929 16.0894 9.32989C15.5516 9.86716 15.458 10.5109 15.458 10.8795H17.458H19.458C19.458 11.1283 19.3944 11.6821 18.9167 12.1594C18.4392 12.6365 17.8859 12.6997 17.638 12.6997V10.6997ZM17.458 10.8795H15.458V13.1573H17.458H19.458V10.8795H17.458ZM17.458 13.1573H15.458C15.458 13.526 15.5516 14.1697 16.0894 14.707C16.6268 15.244 17.2701 15.3372 17.638 15.3372V13.3372V11.3372C17.8859 11.3372 18.4392 11.4004 18.9167 11.8774C19.3944 12.3548 19.458 12.9086 19.458 13.1573H17.458Z"
                fill="#8386A5" />
        </g>
        <path
            d="M14.5788 15.3153H15.5987C15.7187 15.3153 15.8386 15.1954 15.8386 15.0756V9.02139C15.8386 8.84156 15.7187 8.72168 15.5387 8.72168H14.5788C14.4588 8.72168 14.3389 8.84156 14.3389 8.96145V15.0156C14.3389 15.1954 14.4588 15.3153 14.5788 15.3153Z"
            fill="#5E00CC" />
        <mask id="mask1_215_59" style="mask-type:luminance" maskUnits="userSpaceOnUse" x="14" y="8"
            width="2" height="8">
            <path
                d="M14.5788 15.3153H15.5987C15.7187 15.3153 15.8386 15.1954 15.8386 15.0756V9.02139C15.8386 8.84156 15.7187 8.72168 15.5387 8.72168H14.5788C14.4588 8.72168 14.3389 8.84156 14.3389 8.96145V15.0156C14.3389 15.1954 14.4588 15.3153 14.5788 15.3153Z"
                fill="white" />
        </mask>
        <g mask="url(#mask1_215_59)">
            <path
                d="M14.5788 15.3153V17.3153H15.5987V15.3153V13.3153H14.5788V15.3153ZM15.5987 15.3153V17.3153C16.3086 17.3153 16.8514 16.9808 17.1773 16.6552C17.503 16.3297 17.8386 15.7865 17.8386 15.0756H15.8386H13.8386C13.8386 14.4845 14.1142 14.0612 14.35 13.8256C14.5859 13.5899 15.0088 13.3153 15.5987 13.3153V15.3153ZM15.8386 15.0756H17.8386V9.02139H15.8386H13.8386V15.0756H15.8386ZM15.8386 9.02139H17.8386C17.8386 8.4765 17.6481 7.86722 17.1698 7.38932C16.6916 6.91155 16.0827 6.72168 15.5387 6.72168V8.72168V10.7217C15.1747 10.7217 14.7157 10.5917 14.3425 10.2189C13.9692 9.84588 13.8386 9.38646 13.8386 9.02139H15.8386ZM15.5387 8.72168V6.72168H14.5788V8.72168V10.7217H15.5387V8.72168ZM14.5788 8.72168V6.72168C13.8689 6.72168 13.3261 7.05624 13.0002 7.38182C12.6745 7.70731 12.3389 8.25047 12.3389 8.96145H14.3389H16.3389C16.3389 9.55254 16.0633 9.97582 15.8275 10.2114C15.5916 10.4471 15.1687 10.7217 14.5788 10.7217V8.72168ZM14.3389 8.96145H12.3389V15.0156H14.3389H16.3389V8.96145H14.3389ZM14.3389 15.0156H12.3389C12.3389 16.0013 13.0775 17.3153 14.5788 17.3153V15.3153V13.3153C15.8402 13.3153 16.3389 14.3896 16.3389 15.0156H14.3389Z"
                fill="#8386A5" />
        </g>
        <path
            d="M11.6391 19.0917H12.419C12.659 19.0917 12.839 18.9119 12.839 18.6721V5.24502C12.839 5.0652 12.719 4.94531 12.539 4.94531H11.6991C11.4592 4.94531 11.2792 5.12514 11.2792 5.36491V18.732C11.2192 18.9119 11.3992 19.0917 11.6391 19.0917Z"
            fill="#5E00CC" />
        <mask id="mask2_215_59" style="mask-type:luminance" maskUnits="userSpaceOnUse" x="11" y="4"
            width="2" height="16">
            <path
                d="M11.6391 19.0917H12.419C12.659 19.0917 12.839 18.9119 12.839 18.6721V5.24502C12.839 5.0652 12.719 4.94531 12.539 4.94531H11.6991C11.4592 4.94531 11.2792 5.12514 11.2792 5.36491V18.732C11.2192 18.9119 11.3992 19.0917 11.6391 19.0917Z"
                fill="white" />
        </mask>
        <g mask="url(#mask2_215_59)">
            <path
                d="M11.2794 18.732L13.1766 19.3649L13.2794 19.0568V18.732H11.2794ZM11.6393 19.0917V21.0917H12.4192V19.0917V17.0917H11.6393V19.0917ZM12.4192 19.0917V21.0917C13.7622 21.0917 14.8392 20.018 14.8392 18.6721H12.8392H10.8391C10.8391 18.2779 10.9934 17.8688 11.3055 17.557C11.6175 17.2453 12.0262 17.0917 12.4192 17.0917V19.0917ZM12.8392 18.6721H14.8392V5.24502H12.8392H10.8391V18.6721H12.8392ZM12.8392 5.24502H14.8392C14.8392 4.70013 14.6486 4.09086 14.1703 3.61295C13.6922 3.13518 13.0832 2.94531 12.5392 2.94531V4.94531V6.94531C12.1752 6.94531 11.7162 6.81538 11.343 6.44252C10.9697 6.06951 10.8391 5.61009 10.8391 5.24502H12.8392ZM12.5392 4.94531V2.94531H11.6993V4.94531V6.94531H12.5392V4.94531ZM11.6993 4.94531V2.94531C10.3563 2.94531 9.27937 4.01904 9.27937 5.36491H11.2794H13.2794C13.2794 5.75904 13.1251 6.16816 12.813 6.47998C12.501 6.79173 12.0924 6.94531 11.6993 6.94531V4.94531ZM11.2794 5.36491H9.27937V18.732H11.2794H13.2794V5.36491H11.2794ZM11.2794 18.732L9.38215 18.0991C9.06511 19.0495 9.44376 19.905 9.93321 20.3941C10.4068 20.8673 11.0349 21.0917 11.6393 21.0917V19.0917V17.0917C12.0039 17.0917 12.4219 17.2261 12.7605 17.5645C13.115 17.9187 13.4337 18.5944 13.1766 19.3649L11.2794 18.732Z"
                fill="#8386A5" />
        </g>
        <path
            d="M8.39956 16.0945H9.35941C9.53938 16.0945 9.65937 15.9746 9.65937 15.7948V8.24209C9.65937 8.06227 9.53938 7.94238 9.35941 7.94238H8.39956C8.21959 7.94238 8.09961 8.06227 8.09961 8.24209V15.8548C8.09961 15.9746 8.21959 16.0945 8.39956 16.0945Z"
            fill="#5E00CC" />
        <mask id="mask3_215_59" style="mask-type:luminance" maskUnits="userSpaceOnUse" x="8" y="7"
            width="2" height="10">
            <path
                d="M8.39956 16.0945H9.35941C9.53938 16.0945 9.65937 15.9746 9.65937 15.7948V8.24209C9.65937 8.06227 9.53938 7.94238 9.35941 7.94238H8.39956C8.21959 7.94238 8.09961 8.06227 8.09961 8.24209V15.8548C8.09961 15.9746 8.21959 16.0945 8.39956 16.0945Z"
                fill="white" />
        </mask>
        <g mask="url(#mask3_215_59)">
            <path
                d="M8.39956 16.0945V18.0945H9.35941V16.0945V14.0945H8.39956V16.0945ZM9.35941 16.0945V18.0945C9.90341 18.0945 10.5124 17.9047 10.9905 17.4269C11.4688 16.949 11.6594 16.3397 11.6594 15.7948H9.65937H7.65937C7.65937 15.4297 7.78993 14.9703 8.16323 14.5973C8.5364 14.2245 8.99539 14.0945 9.35941 14.0945V16.0945ZM9.65937 15.7948H11.6594V8.24209H9.65937H7.65937V15.7948H9.65937ZM9.65937 8.24209H11.6594C11.6594 7.6972 11.4688 7.08793 10.9905 6.61002C10.5124 6.13225 9.90341 5.94238 9.35941 5.94238V7.94238V9.94238C8.99539 9.94238 8.5364 9.81245 8.16323 9.43959C7.78993 9.06658 7.65937 8.60716 7.65937 8.24209H9.65937ZM9.35941 7.94238V5.94238H8.39956V7.94238V9.94238H9.35941V7.94238ZM8.39956 7.94238V5.94238C7.85557 5.94238 7.2466 6.13225 6.76845 6.61002C6.29016 7.08793 6.09961 7.6972 6.09961 8.24209H8.09961H10.0996C10.0996 8.60716 9.96905 9.06658 9.59574 9.43959C9.22257 9.81245 8.76359 9.94238 8.39956 9.94238V7.94238ZM8.09961 8.24209H6.09961V15.8548H8.09961H10.0996V8.24209H8.09961ZM8.09961 15.8548H6.09961C6.09961 17.3587 7.41699 18.0945 8.39956 18.0945V16.0945V14.0945C9.02219 14.0945 10.0996 14.5906 10.0996 15.8548H8.09961Z"
                fill="#8386A5" />
        </g>
        <path
            d="M5.15995 13.6967H6.35976C6.47975 13.6967 6.53974 13.6368 6.53974 13.5169V10.6996C6.53974 10.5198 6.41975 10.3999 6.23978 10.3999H5.15995C5.03997 10.3999 4.97998 10.4598 4.97998 10.5797V13.5169C4.97998 13.5768 5.03997 13.6967 5.15995 13.6967Z"
            fill="#8386A5" />
        <mask id="mask4_215_59" style="mask-type:luminance" maskUnits="userSpaceOnUse" x="4" y="10"
            width="3" height="4">
            <path
                d="M5.15995 13.6967H6.35976C6.47975 13.6967 6.53974 13.6368 6.53974 13.5169V10.6996C6.53974 10.5198 6.41975 10.3999 6.23978 10.3999H5.15995C5.03997 10.3999 4.97998 10.4598 4.97998 10.5797V13.5169C4.97998 13.5768 5.03997 13.6967 5.15995 13.6967Z"
                fill="white" />
        </mask>
        <g mask="url(#mask4_215_59)">
            <path
                d="M5.15995 13.6967V15.6967H6.35976V13.6967V11.6967H5.15995V13.6967ZM6.35976 13.6967V15.6967C6.72763 15.6967 7.37097 15.6035 7.90839 15.0666C8.44609 14.5293 8.53974 13.8855 8.53974 13.5169H6.53974H4.53974C4.53974 13.2681 4.60338 12.7143 5.0811 12.237C5.55852 11.7599 6.11188 11.6967 6.35976 11.6967V13.6967ZM6.53974 13.5169H8.53974V10.6996H6.53974H4.53974V13.5169H6.53974ZM6.53974 10.6996H8.53974C8.53974 10.1547 8.34918 9.54545 7.87089 9.06754C7.39274 8.58977 6.78378 8.3999 6.23978 8.3999V10.3999V12.3999C5.87576 12.3999 5.41677 12.27 5.04361 11.8971C4.6703 11.5241 4.53974 11.0647 4.53974 10.6996H6.53974ZM6.23978 10.3999V8.3999H5.15995V10.3999V12.3999H6.23978V10.3999ZM5.15995 10.3999V8.3999C4.79207 8.3999 4.14874 8.4931 3.61133 9.03008C3.07362 9.56735 2.97998 10.2111 2.97998 10.5797H4.97998H6.97998C6.97998 10.8285 6.91633 11.3823 6.43862 11.8596C5.9612 12.3367 5.40785 12.3999 5.15995 12.3999V10.3999ZM4.97998 10.5797H2.97998V13.5169H4.97998H6.97998V10.5797H4.97998ZM4.97998 13.5169H2.97998C2.97998 14.0738 3.19863 14.5482 3.46373 14.8793C3.77962 15.2738 4.35714 15.6967 5.15995 15.6967V13.6967V11.6967C5.84278 11.6967 6.33032 12.0597 6.58622 12.3793C6.79132 12.6355 6.97998 13.0199 6.97998 13.5169H4.97998Z"
                fill="#8386A5" />
        </g>
        <g clip-path="url(#clip1_215_59)">
            <path
                d="M11.5527 1.12695C11.854 0.946411 12.1559 0.976625 12.3438 1.10156L12.373 1.12109L12.4033 1.13867L21.3223 6.22266C21.6493 6.41882 21.7969 6.70774 21.7969 6.9834V17.1133C21.7969 17.3885 21.65 17.6759 21.3242 17.8721L12.4629 22.9229C12.1997 23.0281 11.8167 23.0322 11.4971 22.877L2.66602 17.8086C2.34486 17.6126 2.20025 17.327 2.2002 17.0537V6.92285C2.20036 6.64863 2.3454 6.36103 2.66895 6.16504L10.8115 1.55957L10.8223 1.55371L11.542 1.13379L11.5527 1.12695Z"
                fill="white" stroke="#8386A5" stroke-width="2" />
            <path
                d="M17.638 13.3372H18.8378C18.9578 13.3372 19.0178 13.2772 19.0178 13.1573V10.9994C19.0178 10.8196 18.8978 10.6997 18.7178 10.6997H17.638C17.518 10.6997 17.458 10.7596 17.458 10.8795V13.1573C17.458 13.2772 17.518 13.3372 17.638 13.3372Z"
                fill="#8386A5" />
            <mask id="mask5_215_59" style="mask-type:luminance" maskUnits="userSpaceOnUse" x="17"
                y="10" width="3" height="4">
                <path
                    d="M17.638 13.3372H18.8378C18.9578 13.3372 19.0178 13.2772 19.0178 13.1573V10.9994C19.0178 10.8196 18.8978 10.6997 18.7178 10.6997H17.638C17.518 10.6997 17.458 10.7596 17.458 10.8795V13.1573C17.458 13.2772 17.518 13.3372 17.638 13.3372Z"
                    fill="white" />
            </mask>
            <g mask="url(#mask5_215_59)">
                <path
                    d="M17.638 13.3372V15.3372H18.8378V13.3372V11.3372H17.638V13.3372ZM18.8378 13.3372V15.3372C19.2057 15.3372 19.849 15.244 20.3864 14.707C20.9241 14.1697 21.0178 13.526 21.0178 13.1573H19.0178H17.0178C17.0178 12.9086 17.0814 12.3548 17.5591 11.8774C18.0365 11.4004 18.5899 11.3372 18.8378 11.3372V13.3372ZM19.0178 13.1573H21.0178V10.9994H19.0178H17.0178V13.1573H19.0178ZM19.0178 10.9994H21.0178C21.0178 10.4545 20.8272 9.84525 20.3489 9.36734C19.8708 8.88958 19.2618 8.69971 18.7178 8.69971V10.6997V12.6997C18.3538 12.6997 17.8948 12.5698 17.5216 12.1969C17.1483 11.8239 17.0178 11.3645 17.0178 10.9994H19.0178ZM18.7178 10.6997V8.69971H17.638V10.6997V12.6997H18.7178V10.6997ZM17.638 10.6997V8.69971C17.2701 8.69971 16.6268 8.7929 16.0894 9.32989C15.5516 9.86716 15.458 10.5109 15.458 10.8795H17.458H19.458C19.458 11.1283 19.3944 11.6821 18.9167 12.1594C18.4392 12.6365 17.8859 12.6997 17.638 12.6997V10.6997ZM17.458 10.8795H15.458V13.1573H17.458H19.458V10.8795H17.458ZM17.458 13.1573H15.458C15.458 13.526 15.5516 14.1697 16.0894 14.707C16.6268 15.244 17.2701 15.3372 17.638 15.3372V13.3372V11.3372C17.8859 11.3372 18.4392 11.4004 18.9167 11.8774C19.3944 12.3548 19.458 12.9086 19.458 13.1573H17.458Z"
                    fill="#8386A5" />
            </g>
            <path
                d="M14.5788 15.3153H15.5987C15.7187 15.3153 15.8386 15.1954 15.8386 15.0756V9.02139C15.8386 8.84156 15.7187 8.72168 15.5387 8.72168H14.5788C14.4588 8.72168 14.3389 8.84156 14.3389 8.96145V15.0156C14.3389 15.1954 14.4588 15.3153 14.5788 15.3153Z"
                fill="#5E00CC" />
            <mask id="mask6_215_59" style="mask-type:luminance" maskUnits="userSpaceOnUse" x="14"
                y="8" width="2" height="8">
                <path
                    d="M14.5788 15.3153H15.5987C15.7187 15.3153 15.8386 15.1954 15.8386 15.0756V9.02139C15.8386 8.84156 15.7187 8.72168 15.5387 8.72168H14.5788C14.4588 8.72168 14.3389 8.84156 14.3389 8.96145V15.0156C14.3389 15.1954 14.4588 15.3153 14.5788 15.3153Z"
                    fill="white" />
            </mask>
            <g mask="url(#mask6_215_59)">
                <path
                    d="M14.5788 15.3153V17.3153H15.5987V15.3153V13.3153H14.5788V15.3153ZM15.5987 15.3153V17.3153C16.3086 17.3153 16.8514 16.9808 17.1773 16.6552C17.503 16.3297 17.8386 15.7865 17.8386 15.0756H15.8386H13.8386C13.8386 14.4845 14.1142 14.0612 14.35 13.8256C14.5859 13.5899 15.0088 13.3153 15.5987 13.3153V15.3153ZM15.8386 15.0756H17.8386V9.02139H15.8386H13.8386V15.0756H15.8386ZM15.8386 9.02139H17.8386C17.8386 8.4765 17.6481 7.86722 17.1698 7.38932C16.6916 6.91155 16.0827 6.72168 15.5387 6.72168V8.72168V10.7217C15.1747 10.7217 14.7157 10.5917 14.3425 10.2189C13.9692 9.84588 13.8386 9.38646 13.8386 9.02139H15.8386ZM15.5387 8.72168V6.72168H14.5788V8.72168V10.7217H15.5387V8.72168ZM14.5788 8.72168V6.72168C13.8689 6.72168 13.3261 7.05624 13.0002 7.38182C12.6745 7.70731 12.3389 8.25047 12.3389 8.96145H14.3389H16.3389C16.3389 9.55254 16.0633 9.97582 15.8275 10.2114C15.5916 10.4471 15.1687 10.7217 14.5788 10.7217V8.72168ZM14.3389 8.96145H12.3389V15.0156H14.3389H16.3389V8.96145H14.3389ZM14.3389 15.0156H12.3389C12.3389 16.0013 13.0775 17.3153 14.5788 17.3153V15.3153V13.3153C15.8402 13.3153 16.3389 14.3896 16.3389 15.0156H14.3389Z"
                    fill="#8386A5" />
            </g>
            <path
                d="M11.6391 19.0917H12.419C12.659 19.0917 12.839 18.9119 12.839 18.6721V5.24502C12.839 5.0652 12.719 4.94531 12.539 4.94531H11.6991C11.4592 4.94531 11.2792 5.12514 11.2792 5.36491V18.732C11.2192 18.9119 11.3992 19.0917 11.6391 19.0917Z"
                fill="#5E00CC" />
            <mask id="mask7_215_59" style="mask-type:luminance" maskUnits="userSpaceOnUse" x="11"
                y="4" width="2" height="16">
                <path
                    d="M11.6391 19.0917H12.419C12.659 19.0917 12.839 18.9119 12.839 18.6721V5.24502C12.839 5.0652 12.719 4.94531 12.539 4.94531H11.6991C11.4592 4.94531 11.2792 5.12514 11.2792 5.36491V18.732C11.2192 18.9119 11.3992 19.0917 11.6391 19.0917Z"
                    fill="white" />
            </mask>
            <g mask="url(#mask7_215_59)">
                <path
                    d="M11.2794 18.732L13.1766 19.3649L13.2794 19.0568V18.732H11.2794ZM11.6393 19.0917V21.0917H12.4192V19.0917V17.0917H11.6393V19.0917ZM12.4192 19.0917V21.0917C13.7622 21.0917 14.8392 20.018 14.8392 18.6721H12.8392H10.8391C10.8391 18.2779 10.9934 17.8688 11.3055 17.557C11.6175 17.2453 12.0262 17.0917 12.4192 17.0917V19.0917ZM12.8392 18.6721H14.8392V5.24502H12.8392H10.8391V18.6721H12.8392ZM12.8392 5.24502H14.8392C14.8392 4.70013 14.6486 4.09086 14.1703 3.61295C13.6922 3.13518 13.0832 2.94531 12.5392 2.94531V4.94531V6.94531C12.1752 6.94531 11.7162 6.81538 11.343 6.44252C10.9697 6.06951 10.8391 5.61009 10.8391 5.24502H12.8392ZM12.5392 4.94531V2.94531H11.6993V4.94531V6.94531H12.5392V4.94531ZM11.6993 4.94531V2.94531C10.3563 2.94531 9.27937 4.01904 9.27937 5.36491H11.2794H13.2794C13.2794 5.75904 13.1251 6.16816 12.813 6.47998C12.501 6.79173 12.0924 6.94531 11.6993 6.94531V4.94531ZM11.2794 5.36491H9.27937V18.732H11.2794H13.2794V5.36491H11.2794ZM11.2794 18.732L9.38215 18.0991C9.06511 19.0495 9.44376 19.905 9.93321 20.3941C10.4068 20.8673 11.0349 21.0917 11.6393 21.0917V19.0917V17.0917C12.0039 17.0917 12.4219 17.2261 12.7605 17.5645C13.115 17.9187 13.4337 18.5944 13.1766 19.3649L11.2794 18.732Z"
                    fill="#8386A5" />
            </g>
            <path
                d="M8.39956 16.0945H9.35941C9.53938 16.0945 9.65937 15.9746 9.65937 15.7948V8.24209C9.65937 8.06227 9.53938 7.94238 9.35941 7.94238H8.39956C8.21959 7.94238 8.09961 8.06227 8.09961 8.24209V15.8548C8.09961 15.9746 8.21959 16.0945 8.39956 16.0945Z"
                fill="#5E00CC" />
            <mask id="mask8_215_59" style="mask-type:luminance" maskUnits="userSpaceOnUse" x="8"
                y="7" width="2" height="10">
                <path
                    d="M8.39956 16.0945H9.35941C9.53938 16.0945 9.65937 15.9746 9.65937 15.7948V8.24209C9.65937 8.06227 9.53938 7.94238 9.35941 7.94238H8.39956C8.21959 7.94238 8.09961 8.06227 8.09961 8.24209V15.8548C8.09961 15.9746 8.21959 16.0945 8.39956 16.0945Z"
                    fill="white" />
            </mask>
            <g mask="url(#mask8_215_59)">
                <path
                    d="M8.39956 16.0945V18.0945H9.35941V16.0945V14.0945H8.39956V16.0945ZM9.35941 16.0945V18.0945C9.90341 18.0945 10.5124 17.9047 10.9905 17.4269C11.4688 16.949 11.6594 16.3397 11.6594 15.7948H9.65937H7.65937C7.65937 15.4297 7.78993 14.9703 8.16323 14.5973C8.5364 14.2245 8.99539 14.0945 9.35941 14.0945V16.0945ZM9.65937 15.7948H11.6594V8.24209H9.65937H7.65937V15.7948H9.65937ZM9.65937 8.24209H11.6594C11.6594 7.6972 11.4688 7.08793 10.9905 6.61002C10.5124 6.13225 9.90341 5.94238 9.35941 5.94238V7.94238V9.94238C8.99539 9.94238 8.5364 9.81245 8.16323 9.43959C7.78993 9.06658 7.65937 8.60716 7.65937 8.24209H9.65937ZM9.35941 7.94238V5.94238H8.39956V7.94238V9.94238H9.35941V7.94238ZM8.39956 7.94238V5.94238C7.85557 5.94238 7.2466 6.13225 6.76845 6.61002C6.29016 7.08793 6.09961 7.6972 6.09961 8.24209H8.09961H10.0996C10.0996 8.60716 9.96905 9.06658 9.59574 9.43959C9.22257 9.81245 8.76359 9.94238 8.39956 9.94238V7.94238ZM8.09961 8.24209H6.09961V15.8548H8.09961H10.0996V8.24209H8.09961ZM8.09961 15.8548H6.09961C6.09961 17.3587 7.41699 18.0945 8.39956 18.0945V16.0945V14.0945C9.02219 14.0945 10.0996 14.5906 10.0996 15.8548H8.09961Z"
                    fill="#8386A5" />
            </g>
            <path
                d="M5.15995 13.6967H6.35976C6.47975 13.6967 6.53974 13.6368 6.53974 13.5169V10.6996C6.53974 10.5198 6.41975 10.3999 6.23978 10.3999H5.15995C5.03997 10.3999 4.97998 10.4598 4.97998 10.5797V13.5169C4.97998 13.5768 5.03997 13.6967 5.15995 13.6967Z"
                fill="#8386A5" />
            <mask id="mask9_215_59" style="mask-type:luminance" maskUnits="userSpaceOnUse" x="4"
                y="10" width="3" height="4">
                <path
                    d="M5.15995 13.6967H6.35976C6.47975 13.6967 6.53974 13.6368 6.53974 13.5169V10.6996C6.53974 10.5198 6.41975 10.3999 6.23978 10.3999H5.15995C5.03997 10.3999 4.97998 10.4598 4.97998 10.5797V13.5169C4.97998 13.5768 5.03997 13.6967 5.15995 13.6967Z"
                    fill="white" />
            </mask>
            <g mask="url(#mask9_215_59)">
                <path
                    d="M5.15995 13.6967V15.6967H6.35976V13.6967V11.6967H5.15995V13.6967ZM6.35976 13.6967V15.6967C6.72763 15.6967 7.37097 15.6035 7.90839 15.0666C8.44609 14.5293 8.53974 13.8855 8.53974 13.5169H6.53974H4.53974C4.53974 13.2681 4.60338 12.7143 5.0811 12.237C5.55852 11.7599 6.11188 11.6967 6.35976 11.6967V13.6967ZM6.53974 13.5169H8.53974V10.6996H6.53974H4.53974V13.5169H6.53974ZM6.53974 10.6996H8.53974C8.53974 10.1547 8.34918 9.54545 7.87089 9.06754C7.39274 8.58977 6.78378 8.3999 6.23978 8.3999V10.3999V12.3999C5.87576 12.3999 5.41677 12.27 5.04361 11.8971C4.6703 11.5241 4.53974 11.0647 4.53974 10.6996H6.53974ZM6.23978 10.3999V8.3999H5.15995V10.3999V12.3999H6.23978V10.3999ZM5.15995 10.3999V8.3999C4.79207 8.3999 4.14874 8.4931 3.61133 9.03008C3.07362 9.56735 2.97998 10.2111 2.97998 10.5797H4.97998H6.97998C6.97998 10.8285 6.91633 11.3823 6.43862 11.8596C5.9612 12.3367 5.40785 12.3999 5.15995 12.3999V10.3999ZM4.97998 10.5797H2.97998V13.5169H4.97998H6.97998V10.5797H4.97998ZM4.97998 13.5169H2.97998C2.97998 14.0738 3.19863 14.5482 3.46373 14.8793C3.77962 15.2738 4.35714 15.6967 5.15995 15.6967V13.6967V11.6967C5.84278 11.6967 6.33032 12.0597 6.58622 12.3793C6.79132 12.6355 6.97998 13.0199 6.97998 13.5169H4.97998Z"
                    fill="#8386A5" />
            </g>
        </g>
    </g>
    <defs>
        <clipPath id="clip0_215_59">
            <rect width="22" height="24" fill="white" transform="translate(1)" />
        </clipPath>
        <clipPath id="clip1_215_59">
            <rect width="22" height="24" fill="white" transform="translate(1)" />
        </clipPath>
    </defs>
</svg>