<svg width="24" height="24" viewBox="0 0 24 24" fill="none"
  xmlns="http://www.w3.org/2000/svg">
  <path d="M11.1111 23.01L2.88889 18.2916C2.33333 17.9585 2 17.4034 2 16.7928V7.41149C2 6.80087 2.33333 6.24577 2.88889 5.9127L10.4444 1.63837L11.1111 1.2498C11.6667 0.916734 12.3333 0.916734 12.8333 1.2498L21.1111 5.96821C21.6667 6.30128 22 6.85639 22 7.467V16.8483C22 17.4589 21.6667 18.014 21.1111 18.3471L12.8333 23.0655C12.3333 23.2876 11.6667 23.2876 11.1111 23.01Z" fill="#8386A5"/>
  <path d="M17.2223 13.3512H18.3334C18.4445 13.3512 18.5 13.2957 18.5 13.1846V11.1862C18.5 11.0197 18.3889 10.9087 18.2223 10.9087H17.2223C17.1112 10.9087 17.0556 10.9642 17.0556 11.0752V13.1846C17.0556 13.2957 17.1112 13.3512 17.2223 13.3512Z" fill="white"/>
  <path d="M14.3891 15.1828H15.3335C15.4446 15.1828 15.5558 15.0718 15.5558 14.9608V9.35421C15.5558 9.18768 15.4446 9.07666 15.278 9.07666H14.3891C14.278 9.07666 14.1669 9.18768 14.1669 9.2987V14.9053C14.1669 15.0718 14.278 15.1828 14.3891 15.1828Z" fill="white"/>
  <path d="M11.6669 18.6801H12.3891C12.6113 18.6801 12.778 18.5136 12.778 18.2916V5.85714C12.778 5.69061 12.6669 5.57959 12.5002 5.57959H11.7224C11.5002 5.57959 11.3335 5.74612 11.3335 5.96817V18.3471C11.278 18.5136 11.4446 18.6801 11.6669 18.6801Z" fill="white"/>
  <path d="M8.66688 15.9044H9.55577C9.72243 15.9044 9.83354 15.7934 9.83354 15.6269V8.63253C9.83354 8.466 9.72243 8.35498 9.55577 8.35498H8.66688C8.50021 8.35498 8.3891 8.466 8.3891 8.63253V15.6824C8.3891 15.7934 8.50021 15.9044 8.66688 15.9044Z" fill="white"/>
  <path d="M5.66679 13.6844H6.7779C6.88901 13.6844 6.94457 13.6289 6.94457 13.5179V10.9089C6.94457 10.7424 6.83345 10.6313 6.66679 10.6313H5.66679C5.55568 10.6313 5.50012 10.6869 5.50012 10.7979V13.5179C5.50012 13.5734 5.55568 13.6844 5.66679 13.6844Z" fill="white"/>
</svg>
