<svg width="600" height="600" viewBox="0 0 600 600" fill="none"
  xmlns="http://www.w3.org/2000/svg">
  <path d="M0 200H200V0H0V200ZM33.3333 33.3333H166.667V166.667H33.3333V33.3333ZM66.6667 66.6667H133.333V133.333H66.6667V66.6667ZM400 200H600V0H400V200ZM433.333 33.3333H566.667V166.667H433.333V33.3333ZM466.667 66.6667H533.333V133.333H466.667V66.6667ZM0 600H200V400H0V600ZM33.3333 433.333H166.667V566.667H33.3333V433.333ZM66.6667 466.667H133.333V533.333H66.6667V466.667ZM566.667 533.333H600V600H533.333V500H566.667V533.333ZM566.667 433.333H600V466.667H566.667V433.333ZM566.667 400V433.333H533.333V400H566.667ZM233.333 466.667H266.667V600H233.333V466.667ZM100 233.333V300H33.3333V266.667H0V233.333H100ZM233.333 133.333H266.667V166.667H233.333V133.333ZM333.333 33.3333V100H300V0H366.667V33.3333H333.333ZM233.333 33.3333H266.667V66.6667H233.333V33.3333ZM566.667 300H600V366.667H533.333V333.333H566.667V300ZM533.333 233.333V266.667H466.667V333.333H400V300H433.333V233.333H533.333ZM300 366.667H266.667V333.333H233.333V300H300V366.667ZM500 433.333H533.333V466.667H500V433.333ZM566.667 266.667V300H533.333V266.667H566.667ZM266.667 366.667V400H233.333V366.667H266.667ZM466.667 533.333H500V600H433.333V533.333H466.667ZM366.667 533.333H400V566.667H366.667V600H300V566.667H333.333V533.333H366.667ZM366.667 500V466.667H433.333V500H366.667ZM366.667 333.333H400V433.333H366.667V466.667H333.333V500H300V433.333H266.667V400H366.667V366.667H333.333V333.333H366.667ZM66.6667 333.333V366.667H33.3333V333.333H66.6667ZM466.667 466.667H433.333V433.333H466.667V466.667ZM500 400H433.333V366.667H500V400ZM166.667 233.333H200V266.667H166.667V300H200V366.667H166.667V333.333H133.333V366.667H100V300H133.333V233.333H166.667ZM266.667 233.333V166.667H366.667V266.667H300V233.333H333.333V200H300V233.333H266.667ZM266.667 100H300V133.333H266.667V100ZM233.333 233.333H266.667V266.667H233.333V233.333ZM333.333 133.333V100H366.667V133.333H333.333Z" fill="black"/>
</svg>
