<svg width="24" height="24" viewBox="0 0 24 24" fill="none" xmlns="http://www.w3.org/2000/svg">
<path d="M12 12C12.5977 12 13.125 12.5273 13.125 13.125C13.125 13.7578 12.5977 14.25 12 14.25C11.3672 14.25 10.875 13.7578 10.875 13.125C10.875 12.5273 11.3672 12 12 12ZM18.75 3C19.9805 3 21 4.01953 21 5.25V15.375C21 16.6406 19.9805 17.625 18.75 17.625H13.6875L9.29297 20.9297C9.1875 21 9.11719 21 9.04688 21C8.80078 21 8.625 20.8594 8.625 20.5781V17.625H5.25C3.98438 17.625 3 16.6406 3 15.375V5.25C3 4.01953 3.98438 3 5.25 3H18.75ZM19.3125 15.375V5.25C19.3125 4.96875 19.0312 4.6875 18.75 4.6875H5.25C4.93359 4.6875 4.6875 4.96875 4.6875 5.25V15.375C4.6875 15.6914 4.93359 15.9375 5.25 15.9375H10.3125V18.0469L12.668 16.2891L13.125 15.9375H18.75C19.0312 15.9375 19.3125 15.6914 19.3125 15.375ZM12.9844 6.375C13.3359 6.375 13.6172 6.72656 13.5469 7.04297L12.9141 10.418C12.8789 10.6992 12.6328 10.875 12.3516 10.875H11.6133C11.332 10.875 11.1211 10.6992 11.0508 10.418L10.418 7.04297C10.3477 6.72656 10.6289 6.375 10.9805 6.375H12.9844Z" fill="#131420"/>
</svg>
