<?xml version="1.0" encoding="iso-8859-1"?>
<!-- Uploaded to: SVG Repo, www.svgrepo.com, Generator: SVG Repo Mixer Tools -->
<svg fill="#000000" version="1.1" id="Layer_1" xmlns="http://www.w3.org/2000/svg" xmlns:xlink="http://www.w3.org/1999/xlink" 
	 viewBox="0 0 512 512" xml:space="preserve">
<g>
	<g>
		<path d="M493.526,0H18.474C8.288,0,0,8.288,0,18.474v475.052C0,503.712,8.288,512,18.474,512h475.052
			c10.186,0,18.474-8.288,18.474-18.474V18.474C512,8.288,503.712,0,493.526,0z M496.165,493.526c0,1.43-1.209,2.639-2.639,2.639
			H18.474c-1.43,0-2.639-1.209-2.639-2.639V18.474c0-1.43,1.209-2.639,2.639-2.639h475.052c1.43,0,2.639,1.209,2.639,2.639V493.526z
			"/>
	</g>
</g>
<g>
	<g>
		<rect x="34.309" y="36.948" width="26.392" height="15.835"/>
	</g>
</g>
<g>
	<g>
		<rect x="451.299" y="36.948" width="26.392" height="15.835"/>
	</g>
</g>
<g>
	<g>
		<rect x="34.309" y="459.216" width="26.392" height="15.835"/>
	</g>
</g>
<g>
	<g>
		<rect x="451.299" y="459.216" width="26.392" height="15.835"/>
	</g>
</g>
<g>
	<g>
		<polygon points="372.124,78.296 372.124,94.131 411.146,94.131 266.221,239.86 277.449,251.027 422.268,105.403 422.268,144.275 
			438.103,144.275 438.103,78.296 		"/>
	</g>
</g>
<g>
	<g>
		<polygon points="95.576,94.131 134.598,94.131 134.598,78.296 68.619,78.296 68.619,144.275 84.454,144.275 84.454,105.403 
			229.273,251.027 240.501,239.86 		"/>
	</g>
</g>
<g>
	<g>
		<polygon points="240.501,277.419 229.273,266.252 84.454,411.875 84.454,373.003 68.619,373.003 68.619,438.982 134.598,438.982 
			134.598,423.147 95.576,423.147 		"/>
	</g>
</g>
<g>
	<g>
		<polygon points="422.268,373.884 422.268,412.756 277.449,267.131 266.221,278.297 411.146,424.028 372.124,424.028 
			372.124,439.863 438.103,439.863 438.103,373.884 		"/>
	</g>
</g>
</svg>