<svg width="24" height="24" viewBox="0 0 24 24" fill="none" xmlns="http://www.w3.org/2000/svg">
    <path
        d="M5.33333 15.3333C3.46667 15.3333 2 13.8666 2 12C2 10.1333 3.46667 8.66663 5.33333 8.66663C7.2 8.66663 8.66667 10.1333 8.66667 12C8.66667 13.8666 7.2 15.3333 5.33333 15.3333ZM5.33333 9.99996C4.2 9.99996 3.33333 10.8666 3.33333 12C3.33333 13.1333 4.2 14 5.33333 14C6.46667 14 7.33333 13.1333 7.33333 12C7.33333 10.8666 6.46667 9.99996 5.33333 9.99996Z"
        fill="black" />
    <path
        d="M18.6666 8.66667C16.7999 8.66667 15.3333 7.2 15.3333 5.33333C15.3333 3.46667 16.7999 2 18.6666 2C20.5333 2 21.9999 3.46667 21.9999 5.33333C21.9999 7.2 20.5333 8.66667 18.6666 8.66667ZM18.6666 3.33333C17.5333 3.33333 16.6666 4.2 16.6666 5.33333C16.6666 6.46667 17.5333 7.33333 18.6666 7.33333C19.7999 7.33333 20.6666 6.46667 20.6666 5.33333C20.6666 4.2 19.7999 3.33333 18.6666 3.33333Z"
        fill="black" />
    <path
        d="M18.6666 22C16.7999 22 15.3333 20.5334 15.3333 18.6667C15.3333 16.8 16.7999 15.3334 18.6666 15.3334C20.5333 15.3334 21.9999 16.8 21.9999 18.6667C21.9999 20.5334 20.5333 22 18.6666 22ZM18.6666 16.6667C17.5333 16.6667 16.6666 17.5334 16.6666 18.6667C16.6666 19.8 17.5333 20.6667 18.6666 20.6667C19.7999 20.6667 20.6666 19.8 20.6666 18.6667C20.6666 17.5334 19.7999 16.6667 18.6666 16.6667Z"
        fill="black" />
    <path d="M8.00487 12.59L16.5915 16.8833L15.9949 18.0753L7.4082 13.782L8.00487 12.59Z"
        fill="black" />
    <path d="M15.9951 5.92334L16.5911 7.11667L8.00445 11.4087L7.40845 10.2153L15.9951 5.92334Z"
        fill="black" />
</svg>