<svg width="24" height="24" viewBox="0 0 24 24" fill="none" xmlns="http://www.w3.org/2000/svg">
    <path
        d="M6.375 5.5H9.32812C9.60938 5.5 9.75 5.64062 9.75 5.92188V6.76562C9.75 7.04688 9.60938 7.1875 9.32812 7.1875H6.375C5.90625 7.1875 5.50781 7.35156 5.17969 7.67969C4.85156 8.00781 4.6875 8.40625 4.6875 8.875V15.625C4.6875 16.0938 4.85156 16.4922 5.17969 16.8203C5.50781 17.1484 5.90625 17.3125 6.375 17.3125H9.32812C9.60938 17.3125 9.75 17.4531 9.75 17.7344V18.5781C9.75 18.8594 9.60938 19 9.32812 19H6.375C5.4375 19 4.64062 18.6719 3.98438 18.0156C3.32812 17.3594 3 16.5625 3 15.625V8.875C3 7.9375 3.32812 7.14062 3.98438 6.48438C4.64062 5.82812 5.4375 5.5 6.375 5.5ZM14.4961 6.20312C14.707 5.99219 14.9062 5.98047 15.0938 6.16797L20.8594 11.9336C21.0703 12.1445 21.0703 12.3438 20.8594 12.5312L15.0938 18.2969C14.9062 18.5078 14.707 18.5078 14.4961 18.2969L13.8281 17.6289C13.6172 17.418 13.6172 17.2188 13.8281 17.0312L17.8008 13.1641H9.04688C8.76562 13.1641 8.625 13.0234 8.625 12.7422V11.7578C8.625 11.4766 8.76562 11.3359 9.04688 11.3359H17.8008L13.8281 7.46875C13.6172 7.28125 13.6172 7.08203 13.8281 6.87109L14.4961 6.20312Z"
        fill="black" />
</svg>