<svg width="24" height="24" viewBox="0 0 24 24" fill="none" xmlns="http://www.w3.org/2000/svg">
    <path
        d="M13.75 7.9375C13.75 8.375 13.4062 8.6875 13 8.6875C12.5625 8.6875 12.25 8.375 12.25 7.9375C12.25 7.53125 12.5625 7.1875 13 7.1875C13.4062 7.1875 13.75 7.53125 13.75 7.9375ZM13 15C12.8438 15 12.6875 14.9375 12.5625 14.8125C11.4688 13.5625 8.59375 10.125 8.59375 8.25C8.59375 5.90625 10.5625 4 13 4C15.4062 4 17.375 5.90625 17.375 8.25C17.375 10.125 14.5 13.5625 13.4062 14.8125C13.3125 14.9375 13.1562 15 13 15ZM13 5.5C11.375 5.5 10.0938 6.75 10.0938 8.25C10.0938 8.90625 11.0938 10.7188 13 13C14.9062 10.7188 15.875 8.90625 15.875 8.25C15.875 6.75 14.5938 5.5 13 5.5ZM20.5 9C20.75 9 21 9.21875 21 9.5V17.3438C21 17.75 20.75 18.125 20.3438 18.25L15.625 19.9062C15.2188 20.0625 14.7812 20.0312 14.375 19.9062L9 18L3.6875 19.9688C3.625 20 3.5625 20 3.5 20C3.21875 20 3 19.8125 3 19.5V11.6875C3 11.2812 3.25 10.9062 3.625 10.75L7.78125 9.3125C7.90625 9.75 8.09375 10.2188 8.34375 10.6875L4.5 12.0312V18.0625L8.46875 16.5938H8.5V10.9688C8.90625 11.7188 9.40625 12.5 10 13.25V16.7812L14 18.1875V15.6562C14.0312 15.5938 14.0938 15.5312 14.1562 15.5C14.625 14.9688 15.0625 14.4375 15.5 13.9062V18.375L19.5 16.9688V10.9375L16.9375 11.9062C17.375 11.2188 17.75 10.5312 18 9.90625L20.3125 9.0625C20.375 9.03125 20.4375 9 20.5 9Z"
        fill="#8386A5" />
</svg>
    