<svg width="24" height="24" viewBox="0 0 24 24" fill="none" xmlns="http://www.w3.org/2000/svg">
<path d="M6.99999 4C6.99999 3.46956 7.2107 2.96086 7.58577 2.58578C7.96084 2.21071 8.46956 2 8.99998 2H14.9999C15.5305 2 16.0391 2.21071 16.4141 2.58578C16.7892 2.96086 17 3.46956 17 4V5.99999H20.9999C21.2651 5.99999 21.5195 6.10535 21.7071 6.29288C21.8946 6.48042 22 6.73477 22 6.99999C22 7.26521 21.8946 7.51956 21.7071 7.70709C21.5195 7.89463 21.2651 7.99999 20.9999 7.99999H19.931L19.064 20.1419C19.0281 20.6465 18.8022 21.1187 18.432 21.4635C18.0618 21.8082 17.5748 22 17.069 22H6.92999C6.42413 22 5.93706 21.8082 5.56687 21.4635C5.1967 21.1187 4.97091 20.6465 4.93499 20.1419L4.07 7.99999H3C2.73478 7.99999 2.48043 7.89463 2.29289 7.70709C2.10536 7.51956 2 7.26521 2 6.99999C2 6.73477 2.10536 6.48042 2.29289 6.29288C2.48043 6.10535 2.73478 5.99999 3 5.99999H6.99999V4ZM8.99998 5.99999H14.9999V4H8.99998V5.99999ZM6.07399 7.99999L6.93099 20H17.0699L17.927 7.99999H6.07399ZM9.99999 9.99999C10.2652 9.99999 10.5196 10.1053 10.7071 10.2929C10.8946 10.4804 11 10.7348 11 11V17C11 17.2652 10.8946 17.5196 10.7071 17.7071C10.5196 17.8946 10.2652 17.9999 9.99999 17.9999C9.73476 17.9999 9.48041 17.8946 9.29288 17.7071C9.10534 17.5196 8.99998 17.2652 8.99998 17V11C8.99998 10.7348 9.10534 10.4804 9.29288 10.2929C9.48041 10.1053 9.73476 9.99999 9.99999 9.99999ZM14 9.99999C14.2652 9.99999 14.5196 10.1053 14.7071 10.2929C14.8946 10.4804 14.9999 10.7348 14.9999 11V17C14.9999 17.2652 14.8946 17.5196 14.7071 17.7071C14.5196 17.8946 14.2652 17.9999 14 17.9999C13.7348 17.9999 13.4804 17.8946 13.2929 17.7071C13.1053 17.5196 13 17.2652 13 17V11C13 10.7348 13.1053 10.4804 13.2929 10.2929C13.4804 10.1053 13.7348 9.99999 14 9.99999Z" fill="#0D0D0D"/>
</svg>
