<svg width="16" height="16" viewBox="0 0 16 16" fill="none"
  xmlns="http://www.w3.org/2000/svg">
  <path d="M8 8C6.33594 8 5 6.66406 5 5C5 3.35938 6.33594 2 8 2C9.64062 2 11 3.35938 11 5C11 6.66406 9.64062 8 8 8ZM10.0859 8.75C11.8203 8.75 13.25 10.1797 13.25 11.9141V12.875C13.25 13.5078 12.7344 14 12.125 14H3.875C3.24219 14 2.75 13.5078 2.75 12.875V11.9141C2.75 10.1797 4.15625 8.75 5.89062 8.75H6.28906C6.80469 9.00781 7.39062 9.125 8 9.125C8.60938 9.125 9.17188 9.00781 9.6875 8.75H10.0859Z" fill="#8386A5"/>
</svg>
