<svg width="28" height="32" viewBox="0 0 28 32" fill="none"
  xmlns="http://www.w3.org/2000/svg">
  <path d="M8.375 19H9.22754C10.7525 19.6646 12.3457 20 14 20C15.6543 20 17.2475 19.6646 18.7725 19H19.625C21.6423 19 23.3441 19.7212 24.7842 21.1982L24.8018 21.2158C26.2788 22.6559 27 24.3577 27 26.375V29C27 29.5711 26.8116 30.0243 26.418 30.418C26.0243 30.8116 25.5711 31 25 31H3C2.50013 31 2.09074 30.8556 1.73242 30.5557L1.58203 30.418C1.18836 30.0243 1 29.5711 1 29V26.375C1 24.4758 1.62104 22.8591 2.88379 21.4795L3.14453 21.207C4.62965 19.7219 6.35689 19 8.375 19ZM14 1C15.9381 1 17.5547 1.68234 18.9082 3.07227L18.9277 3.0918C20.3177 4.4453 21 6.06188 21 8C21 9.81768 20.3993 11.3748 19.1719 12.7148L18.918 12.9805C17.5665 14.3319 15.947 15 14 15C12.0567 15 10.4144 14.3336 9.01953 12.9795C7.66609 11.5849 7 9.94285 7 8C7 6.17474 7.58747 4.63746 8.77441 3.33887L9.01953 3.08203C10.4183 1.68329 12.061 1 14 1Z" stroke="#8386A5" stroke-width="2"/>
</svg>
